/* XPM */
static char * 11_xpm[] = {
"32 32 931 2",
"  	c #7B7166",
". 	c #7C756B",
"+ 	c #766757",
"@ 	c #746653",
"# 	c #735E45",
"$ 	c #754B23",
"% 	c #745232",
"& 	c #765F46",
"* 	c #7D5C3A",
"= 	c #865D35",
"- 	c #916E46",
"; 	c #906A40",
"> 	c #835B3A",
", 	c #9A7655",
"' 	c #8D643E",
") 	c #936D4A",
"! 	c #916B46",
"~ 	c #90643D",
"{ 	c #84613F",
"] 	c #8B6943",
"^ 	c #946635",
"/ 	c #8B643B",
"( 	c #906332",
"_ 	c #92622E",
": 	c #946129",
"< 	c #796042",
"[ 	c #6B4D2F",
"} 	c #6E5337",
"| 	c #6D5F4F",
"1 	c #6B665E",
"2 	c #84796D",
"3 	c #796F64",
"4 	c #7E766B",
"5 	c #7D6D5C",
"6 	c #8D918F",
"7 	c #83827C",
"8 	c #282016",
"9 	c #1F1910",
"0 	c #150F08",
"a 	c #17110C",
"b 	c #1B1209",
"c 	c #211204",
"d 	c #251607",
"e 	c #1E1B16",
"f 	c #60574F",
"g 	c #7C7D7A",
"h 	c #7E756B",
"i 	c #997857",
"j 	c #AD7D49",
"k 	c #9B7A5A",
"l 	c #A68A6C",
"m 	c #9F8462",
"n 	c #362613",
"o 	c #291A09",
"p 	c #221708",
"q 	c #211305",
"r 	c #1D0F04",
"s 	c #171008",
"t 	c #140E07",
"u 	c #14120F",
"v 	c #575856",
"w 	c #6E7475",
"x 	c #6F706F",
"y 	c #6F665D",
"z 	c #837C71",
"A 	c #57493E",
"B 	c #7E776C",
"C 	c #95938B",
"D 	c #7D786E",
"E 	c #010100",
"F 	c #000000",
"G 	c #020200",
"H 	c #5D4834",
"I 	c #816B56",
"J 	c #797067",
"K 	c #696965",
"L 	c #7B6D5F",
"M 	c #9C7F5E",
"N 	c #6F6559",
"O 	c #9E9281",
"P 	c #B5A48D",
"Q 	c #927E64",
"R 	c #030201",
"S 	c #000002",
"T 	c #000001",
"U 	c #4E4D48",
"V 	c #727A7B",
"W 	c #787773",
"X 	c #626361",
"Y 	c #6C6A66",
"Z 	c #736860",
"` 	c #564637",
" .	c #585550",
"..	c #908778",
"+.	c #A29989",
"@.	c #7F6A50",
"#.	c #010000",
"$.	c #020100",
"%.	c #60472E",
"&.	c #855B35",
"*.	c #83664E",
"=.	c #66594E",
"-.	c #4B443E",
";.	c #6A5C52",
">.	c #856448",
",.	c #624F3D",
"'.	c #6B6459",
").	c #AC9880",
"!.	c #A79987",
"~.	c #6D665D",
"{.	c #000102",
"].	c #474B4A",
"^.	c #706960",
"/.	c #8B8172",
"(.	c #6C6255",
"_.	c #454645",
":.	c #6D7272",
"<.	c #70645B",
"[.	c #4B4036",
"}.	c #242320",
"|.	c #565552",
"1.	c #90877A",
"2.	c #A07E5B",
"3.	c #72533A",
"4.	c #010101",
"5.	c #000101",
"6.	c #765835",
"7.	c #947451",
"8.	c #8A6E55",
"9.	c #6C655E",
"0.	c #352D26",
"a.	c #2E251C",
"b.	c #7C6854",
"c.	c #8A7058",
"d.	c #564638",
"e.	c #2E251B",
"f.	c #5D5C58",
"g.	c #8D8579",
"h.	c #918E88",
"i.	c #6D675E",
"j.	c #4D4B46",
"k.	c #6E6E6A",
"l.	c #7E7C75",
"m.	c #646059",
"n.	c #372F26",
"o.	c #292A29",
"p.	c #686866",
"q.	c #7D766D",
"r.	c #534B44",
"s.	c #2A2A2A",
"t.	c #595550",
"u.	c #8B715A",
"v.	c #9D8B7C",
"w.	c #7E6A58",
"x.	c #705C45",
"y.	c #A2815B",
"z.	c #917659",
"A.	c #66584C",
"B.	c #303130",
"C.	c #010102",
"D.	c #2C2A28",
"E.	c #6F6054",
"F.	c #877462",
"G.	c #544A3F",
"H.	c #2A241F",
"I.	c #2C2B29",
"J.	c #5C5B57",
"K.	c #888076",
"L.	c #AE987A",
"M.	c #887258",
"N.	c #65594A",
"O.	c #857767",
"P.	c #767773",
"Q.	c #666866",
"R.	c #2D3030",
"S.	c #221E1C",
"T.	c #67615B",
"U.	c #838583",
"V.	c #52514E",
"W.	c #302E2A",
"X.	c #36322C",
"Y.	c #271D15",
"Z.	c #58473A",
"`.	c #967251",
" +	c #B77D44",
".+	c #AB8254",
"++	c #9F8769",
"@+	c #776755",
"#+	c #33271D",
"$+	c #2B2D2C",
"%+	c #747674",
"&+	c #91816E",
"*+	c #594C3D",
"=+	c #2F251B",
"-+	c #362E24",
";+	c #28231D",
">+	c #5D5A54",
",+	c #898A84",
"'+	c #C1996C",
")+	c #A28766",
"!+	c #8D7152",
"~+	c #6E6254",
"{+	c #2C2C2B",
"]+	c #22201E",
"^+	c #686968",
"/+	c #85817A",
"(+	c #554F47",
"_+	c #342D24",
":+	c #262018",
"<+	c #040404",
"[+	c #241D17",
"}+	c #67594D",
"|+	c #9C7A5D",
"1+	c #9C8266",
"2+	c #715C4C",
"3+	c #39291B",
"4+	c #0E0D0C",
"5+	c #15110D",
"6+	c #010202",
"7+	c #2C2A27",
"8+	c #817A6F",
"9+	c #9B8368",
"0+	c #594D3E",
"a+	c #3F3120",
"b+	c #241C11",
"c+	c #030302",
"d+	c #201C18",
"e+	c #63584C",
"f+	c #988065",
"g+	c #9C8A73",
"h+	c #81715F",
"i+	c #533A1F",
"j+	c #110F0C",
"k+	c #0E0C0A",
"l+	c #272827",
"m+	c #716A63",
"n+	c #8D857B",
"o+	c #4C4B49",
"p+	c #1C1812",
"q+	c #030303",
"r+	c #694B2F",
"s+	c #817062",
"t+	c #7F6F64",
"u+	c #7C6452",
"v+	c #977F68",
"w+	c #7C7160",
"x+	c #1D1B17",
"y+	c #2A1F14",
"z+	c #14110C",
"A+	c #2F271E",
"B+	c #7E7D76",
"C+	c #887868",
"D+	c #4E4E4B",
"E+	c #2B1F11",
"F+	c #070604",
"G+	c #584B3D",
"H+	c #7F6953",
"I+	c #888075",
"J+	c #877766",
"K+	c #9F917F",
"L+	c #A77339",
"M+	c #1F1912",
"N+	c #31271C",
"O+	c #16100A",
"P+	c #362A1D",
"Q+	c #866A50",
"R+	c #997D63",
"S+	c #4E4A43",
"T+	c #50453C",
"U+	c #977D68",
"V+	c #837266",
"W+	c #665D56",
"X+	c #604C39",
"Y+	c #908373",
"Z+	c #9E9585",
"`+	c #787165",
" @	c #342A1F",
".@	c #2A2723",
"+@	c #2E2B28",
"@@	c #777773",
"#@	c #8C7A68",
"$@	c #4A433B",
"%@	c #020201",
"&@	c #5A4C3C",
"*@	c #74716C",
"=@	c #807F7B",
"-@	c #656561",
";@	c #5C544B",
">@	c #8D8479",
",@	c #C68948",
"'@	c #956D3F",
")@	c #3D2F1F",
"!@	c #3B2B18",
"~@	c #322B23",
"{@	c #A0784B",
"]@	c #A07D5B",
"^@	c #5C4227",
"/@	c #504E4A",
"(@	c #7E746D",
"_@	c #97816F",
":@	c #6F6359",
"<@	c #3C3834",
"[@	c #231F1C",
"}@	c #5B5C5A",
"|@	c #858681",
"1@	c #B18D67",
"2@	c #9F713D",
"3@	c #342D25",
"4@	c #393128",
"5@	c #876B4E",
"6@	c #887563",
"7@	c #493F35",
"8@	c #685842",
"9@	c #877763",
"0@	c #7B7670",
"a@	c #65635F",
"b@	c #3C3F40",
"c@	c #242627",
"d@	c #5C5348",
"e@	c #A68563",
"f@	c #B48E65",
"g@	c #706152",
"h@	c #2E2A25",
"i@	c #353533",
"j@	c #9B6E41",
"k@	c #AB8661",
"l@	c #4F4D4A",
"m@	c #5D5E5C",
"n@	c #848582",
"o@	c #969998",
"p@	c #7A7671",
"q@	c #443E37",
"r@	c #2D2925",
"s@	c #1C1713",
"t@	c #1E1E1C",
"u@	c #5B5B57",
"v@	c #957655",
"w@	c #C29D75",
"x@	c #93775A",
"y@	c #483727",
"z@	c #8D775C",
"A@	c #9A8771",
"B@	c #5B5044",
"C@	c #685946",
"D@	c #A88052",
"E@	c #9F7D55",
"F@	c #6F675D",
"G@	c #35322F",
"H@	c #2A2A29",
"I@	c #181818",
"J@	c #1B1A17",
"K@	c #615B53",
"L@	c #928E87",
"M@	c #6C6D6B",
"N@	c #393532",
"O@	c #91775E",
"P@	c #A87F56",
"Q@	c #807B73",
"R@	c #838482",
"S@	c #888D8C",
"T@	c #787065",
"U@	c #463A2D",
"V@	c #3F3324",
"W@	c #332B21",
"X@	c #201B15",
"Y@	c #271B10",
"Z@	c #655445",
"`@	c #AB8C66",
" #	c #D99D55",
".#	c #C28642",
"+#	c #A36D34",
"@#	c #A67F57",
"##	c #A27142",
"$#	c #B28959",
"%#	c #B28A5D",
"&#	c #826E55",
"*#	c #463A2A",
"=#	c #292827",
"-#	c #1A1B1C",
";#	c #1F201F",
">#	c #5B6161",
",#	c #8F8578",
"'#	c #918578",
")#	c #7F7D79",
"!#	c #866748",
"~#	c #A3774B",
"{#	c #AA865D",
"]#	c #98826B",
"^#	c #847969",
"/#	c #3F3A33",
"(#	c #0A0702",
"_#	c #362B1E",
":#	c #1E1A15",
"<#	c #1D1E1D",
"[#	c #635E56",
"}#	c #988A78",
"|#	c #CF9554",
"1#	c #B57633",
"2#	c #C58542",
"3#	c #BA7533",
"4#	c #BA8E5E",
"5#	c #96734B",
"6#	c #44392C",
"7#	c #060503",
"8#	c #241E17",
"9#	c #352D22",
"0#	c #1C1C1A",
"a#	c #202222",
"b#	c #565856",
"c#	c #817E78",
"d#	c #807770",
"e#	c #746558",
"f#	c #A3815A",
"g#	c #A8733C",
"h#	c #AA7E4D",
"i#	c #A09586",
"j#	c #7E6953",
"k#	c #8D571C",
"l#	c #8B5E2C",
"m#	c #825426",
"n#	c #855A2C",
"o#	c #694D31",
"p#	c #57483B",
"q#	c #605143",
"r#	c #706D68",
"s#	c #847768",
"t#	c #BB8E62",
"u#	c #B27D47",
"v#	c #AA7D50",
"w#	c #967658",
"x#	c #95795D",
"y#	c #B68A5A",
"z#	c #825D36",
"A#	c #755433",
"B#	c #653E1C",
"C#	c #7E6342",
"D#	c #71614D",
"E#	c #5E5247",
"F#	c #54483E",
"G#	c #725A43",
"H#	c #836C52",
"I#	c #6A625A",
"J#	c #7B7974",
"K#	c #8C7760",
"L#	c #A97A45",
"M#	c #B27E4B",
"N#	c #9A866E",
"O#	c #96948D",
"P#	c #AC9375",
"Q#	c #D58F42",
"R#	c #D18533",
"S#	c #BD7934",
"T#	c #A37F58",
"U#	c #8C7B69",
"V#	c #998774",
"W#	c #A6835B",
"X#	c #94826D",
"Y#	c #B89168",
"Z#	c #9A8770",
"`#	c #937962",
" $	c #9E7C5A",
".$	c #9A7B5E",
"+$	c #AD855F",
"@$	c #B8824C",
"#$	c #BD9D75",
"$$	c #BE8F5C",
"%$	c #B57738",
"&$	c #C5823D",
"*$	c #A67241",
"=$	c #927A63",
"-$	c #957453",
";$	c #997958",
">$	c #9C7F60",
",$	c #895E36",
"'$	c #936B45",
")$	c #907252",
"!$	c #80654A",
"~$	c #746251",
"{$	c #6D5C4A",
"]$	c #946737",
"^$	c #A56829",
"/$	c #906E4E",
"($	c #986735",
"_$	c #84623C",
":$	c #846B4F",
"<$	c #876A4A",
"[$	c #946F43",
"}$	c #856C4F",
"|$	c #8F785D",
"1$	c #857A70",
"2$	c #888784",
"3$	c #8B837A",
"4$	c #958473",
"5$	c #9F744D",
"6$	c #8D623A",
"7$	c #966633",
"8$	c #9A7447",
"9$	c #956D40",
"0$	c #8E5419",
"a$	c #895521",
"b$	c #885828",
"c$	c #8A5D2E",
"d$	c #845E36",
"e$	c #7F5529",
"f$	c #916A3E",
"g$	c #8F6944",
"h$	c #927657",
"i$	c #89745F",
"j$	c #958168",
"k$	c #968874",
"l$	c #7F7164",
"m$	c #2F1E0D",
"n$	c #251B11",
"o$	c #161615",
"p$	c #191919",
"q$	c #23190D",
"r$	c #191917",
"s$	c #25180C",
"t$	c #1D1D1C",
"u$	c #5D605F",
"v$	c #897F71",
"w$	c #9A7E64",
"x$	c #8F8479",
"y$	c #908A83",
"z$	c #997757",
"A$	c #CD863E",
"B$	c #A57C55",
"C$	c #33200C",
"D$	c #281C0F",
"E$	c #20190F",
"F$	c #221304",
"G$	c #201104",
"H$	c #1F1205",
"I$	c #7F5F39",
"J$	c #A27949",
"K$	c #978871",
"L$	c #837A6E",
"M$	c #5F5044",
"N$	c #817161",
"O$	c #937961",
"P$	c #906233",
"Q$	c #000103",
"R$	c #595854",
"S$	c #878279",
"T$	c #8F8B81",
"U$	c #797670",
"V$	c #79756F",
"W$	c #8D7967",
"X$	c #825E3E",
"Y$	c #B27A42",
"Z$	c #B6875B",
"`$	c #A26D37",
" %	c #020101",
".%	c #6F4C24",
"+%	c #9E7141",
"@%	c #8A6A4B",
"#%	c #72604E",
"$%	c #756E65",
"%%	c #8C7560",
"&%	c #665544",
"*%	c #58534C",
"=%	c #917B67",
"-%	c #B28456",
";%	c #6B5D4E",
">%	c #525658",
",%	c #828481",
"'%	c #968774",
")%	c #7B6E5D",
"!%	c #505454",
"~%	c #706B67",
"{%	c #87807A",
"]%	c #786049",
"^%	c #78512A",
"/%	c #9F7852",
"(%	c #C3894E",
"_%	c #876846",
":%	c #624528",
"<%	c #AE7C43",
"[%	c #B3844D",
"}%	c #80674A",
"|%	c #51463B",
"1%	c #716C65",
"2%	c #8C755F",
"3%	c #5E4F3D",
"4%	c #292620",
"5%	c #545655",
"6%	c #937255",
"7%	c #947B64",
"8%	c #675E56",
"9%	c #555B5C",
"0%	c #838B8E",
"a%	c #898B88",
"b%	c #7D6C59",
"c%	c #463625",
"d%	c #35302B",
"e%	c #7D7366",
"f%	c #847A71",
"g%	c #5B4B3C",
"h%	c #332415",
"i%	c #67594B",
"j%	c #B39067",
"k%	c #BF9869",
"l%	c #7F5D38",
"m%	c #5D3E20",
"n%	c #8B7761",
"o%	c #9E876D",
"p%	c #7D664B",
"q%	c #45321C",
"r%	c #372718",
"s%	c #806247",
"t%	c #918373",
"u%	c #524A41",
"v%	c #2C2824",
"w%	c #312A22",
"x%	c #725535",
"y%	c #927455",
"z%	c #AC9C86",
"A%	c #7F6954",
"B%	c #5B5F5E",
"C%	c #83898B",
"D%	c #898F90",
"E%	c #7B6F5F",
"F%	c #32312F",
"G%	c #010204",
"H%	c #2C2E2F",
"I%	c #7C7B77",
"J%	c #8F8F8A",
"K%	c #56534F",
"L%	c #34322F",
"M%	c #2A2825",
"N%	c #6A6B68",
"O%	c #8C7C6B",
"P%	c #AA7D4F",
"Q%	c #825D38",
"R%	c #625240",
"S%	c #84674C",
"T%	c #857C72",
"U%	c #6A6B69",
"V%	c #30271F",
"W%	c #020202",
"X%	c #322E29",
"Y%	c #7B6552",
"Z%	c #977C65",
"`%	c #50504F",
" &	c #292725",
".&	c #2C2A26",
"+&	c #27211A",
"@&	c #6F5740",
"#&	c #A78863",
"$&	c #BC9468",
"%&	c #B59C7D",
"&&	c #9F988B",
"*&	c #7F7A72",
"=&	c #443A2D",
"-&	c #252626",
";&	c #767775",
">&	c #939189",
",&	c #585958",
"'&	c #32302D",
")&	c #2D2926",
"!&	c #24221F",
"~&	c #5E5449",
"{&	c #BB834B",
"]&	c #8F775D",
"^&	c #826A53",
"/&	c #6D5742",
"(&	c #352E27",
"_&	c #28211B",
":&	c #7E6651",
"<&	c #A4805A",
"[&	c #4F4943",
"}&	c #272420",
"|&	c #1D1812",
"1&	c #020304",
"2&	c #212324",
"3&	c #6A5B4E",
"4&	c #A77F54",
"5&	c #B79368",
"6&	c #B78B5B",
"7&	c #5B462E",
"8&	c #1B160F",
"9&	c #16130E",
"0&	c #2D2822",
"a&	c #927A5E",
"b&	c #A78864",
"c&	c #67543E",
"d&	c #332B22",
"e&	c #24201B",
"f&	c #030507",
"g&	c #221C16",
"h&	c #5E4B3B",
"i&	c #8D735C",
"j&	c #807163",
"k&	c #836B53",
"l&	c #433424",
"m&	c #120D06",
"n&	c #160D05",
"o&	c #2E261D",
"p&	c #9B8770",
"q&	c #4A443D",
"r&	c #181715",
"s&	c #4F4F4D",
"t&	c #7D7870",
"u&	c #8E745D",
"v&	c #B79975",
"w&	c #DA9D59",
"x&	c #AF742D",
"y&	c #2C2316",
"z&	c #382D1F",
"A&	c #18140D",
"B&	c #382A19",
"C&	c #876745",
"D&	c #A58968",
"E&	c #615442",
"F&	c #231B10",
"G&	c #595855",
"H&	c #7A746C",
"I&	c #85837D",
"J&	c #918372",
"K&	c #A77E56",
"L&	c #775839",
"M&	c #221A11",
"N&	c #342514",
"O&	c #1C1409",
"P&	c #3B2C19",
"Q&	c #9C8363",
"R&	c #AA8F6F",
"S&	c #554E43",
"T&	c #504E49",
"U&	c #777066",
"V&	c #917C64",
"W&	c #6F655B",
"X&	c #75624F",
"Y&	c #B18557",
"Z&	c #DD913F",
"`&	c #8C6740",
" *	c #3C3122",
".*	c #342C21",
"+*	c #383125",
"@*	c #7F7363",
"#*	c #90775E",
"$*	c #534739",
"%*	c #595C5C",
"&*	c #8A8B86",
"**	c #868A88",
"=*	c #676C6C",
"-*	c #675A4B",
";*	c #866649",
">*	c #895E3C",
",*	c #67594C",
"'*	c #34291C",
")*	c #302518",
"!*	c #372B1F",
"~*	c #947E62",
"{*	c #AE8F69",
"]*	c #615341",
"^*	c #000100",
"/*	c #6B4E2E",
"(*	c #907A5F",
"_*	c #917B5F",
":*	c #886B49",
"<*	c #3A3835",
"[*	c #272522",
"}*	c #705842",
"|*	c #AF7B49",
"1*	c #D2A065",
"2*	c #9F7D53",
"3*	c #332D24",
"4*	c #403324",
"5*	c #967855",
"6*	c #908679",
"7*	c #51473D",
"8*	c #605243",
"9*	c #8D9393",
"0*	c #949692",
"a*	c #6C7171",
"b*	c #3B3C3A",
"c*	c #24201C",
"d*	c #564537",
"e*	c #7D746A",
"f*	c #6B6862",
"g*	c #2C2823",
"h*	c #3E3327",
"i*	c #8C6943",
"j*	c #A5815C",
"k*	c #5F5649",
"l*	c #4C4B48",
"m*	c #896C4B",
"n*	c #917F66",
"o*	c #41362A",
"p*	c #1B1C1B",
"q*	c #1C1916",
"r*	c #635444",
"s*	c #9F805F",
"t*	c #C18E56",
"u*	c #916F48",
"v*	c #493824",
"w*	c #8D7353",
"x*	c #8E887D",
"y*	c #555554",
"z*	c #59534E",
"A*	c #A17952",
"B*	c #BA8D5B",
"C*	c #957E63",
"D*	c #433F39",
"E*	c #2B2824",
"F*	c #171614",
"G*	c #191612",
"H*	c #545959",
"I*	c #84827A",
"J*	c #8D8F8C",
"K*	c #696762",
"L*	c #3E3730",
"M*	c #896B4C",
"N*	c #B48B5E",
"O*	c #8A7259",
"P*	c #7E7468",
"Q*	c #796754",
"R*	c #735438",
"S*	c #482B10",
"T*	c #2B2822",
"U*	c #2D2B29",
"V*	c #201D1A",
"W*	c #6F5F4D",
"X*	c #C58A47",
"Y*	c #B08A61",
"Z*	c #A37C50",
"`*	c #967652",
" =	c #937D66",
".=	c #86786A",
"+=	c #848078",
"@=	c #B39572",
"#=	c #877966",
"$=	c #473F33",
"%=	c #353028",
"&=	c #392F23",
"*=	c #211A12",
"==	c #191B1C",
"-=	c #545857",
";=	c #8E8273",
">=	c #938D85",
",=	c #997F61",
"'=	c #9C7850",
")=	c #BB7C39",
"!=	c #97744F",
"~=	c #8F6B47",
"{=	c #6B523B",
"]=	c #332A20",
"^=	c #060401",
"/=	c #1E1D1B",
"(=	c #262525",
"_=	c #191817",
":=	c #272018",
"<=	c #7E5D39",
"[=	c #927D64",
"}=	c #947A60",
"|=	c #9E8362",
"1=	c #A17E59",
"2=	c #9A7857",
"3=	c #A78B6C",
"4=	c #89715A",
"5=	c #3D3F3F",
"6=	c #040403",
"7=	c #272118",
"8=	c #34281B",
"9=	c #231B11",
"0=	c #221E18",
"a=	c #595248",
"b=	c #7B8181",
"c=	c #90877E",
"d=	c #997B5F",
"e=	c #856F58",
"f=	c #9D6C3E",
"g=	c #8C6138",
"h=	c #735A3D",
"i=	c #70471F",
"j=	c #5B4B3D",
"k=	c #5D5C59",
"l=	c #5A524C",
"m=	c #645446",
"n=	c #75604A",
"o=	c #967145",
"p=	c #7F5A36",
"q=	c #826C57",
"r=	c #9C8165",
"s=	c #966C45",
"t=	c #917254",
"u=	c #937C63",
"v=	c #877E74",
"w=	c #6B6660",
"x=	c #79634A",
"y=	c #7D5933",
"z=	c #6F5B43",
"A=	c #7C5D36",
"B=	c #72593A",
"C=	c #6C5A44",
"D=	c #735C43",
"E=	c #7B6B55",
"F=	c #866541",
"G=	c #896E53",
"H=	c #A37D5B",
"I=	c #817B72",
"J=	c #8E8375",
"K=	c #968066",
"L=	c #9D8262",
"M=	c #A26E3D",
"N=	c #987B5B",
"O=	c #987F66",
"P=	c #A98E73",
"Q=	c #8E7866",
"R=	c #9E876F",
"S=	c #A88865",
"T=	c #C08F59",
"U=	c #C28540",
"V=	c #906D4D",
"W=	c #8F6C4C",
"X=	c #95724E",
"Y=	c #A07C55",
"Z=	c #A9835D",
"`=	c #A68E74",
" -	c #9F9286",
".-	c #CE904B",
"+-	c #A6815A",
"@-	c #B88348",
"#-	c #B78246",
"$-	c #B87A3A",
"%-	c #9C7956",
"&-	c #9D7E5A",
"*-	c #9D8466",
"=-	c #A57A4E",
"--	c #837767",
"  . + @ # $ % & * = - ; > , ' ) ! ~ { ] ^ / ( _ : < [ } | 1 2 3 ",
"4 5 6 7 8 9 0 a b c d e f g h i j k l m n o p q r s t u v w x y ",
"z A B C D E F F E G F H I J K L M N O P Q R S T F F F U V W X Y ",
"Z `  ...+.@.F #.F $.%.&.*.=.-.;.>.,.'.).!.~.T {.T F ].^./.(._.:.",
"<.[.}.|.1.2.3.4.5.6.7.8.9.0.a.b.c.d.e.f.g.h.i.F T j.k.l.m.n.o.p.",
"q.r.o.s.t.u.v.w.x.y.z.A.B.C.D.E.F.G.H.I.J.K.L.M.N.O.P.Q.R.C.S.T.",
"U.V.W.X.Y.Z.`. +.+++@+#+F T $+%+&+*+=+-+;+>+,+'+)+!+~+{+F T ]+^+",
"/+(+_+:+<+[+}+|+1+2+3+4+5+6+7+8+9+0+a+b+c+d+e+f+g+h+i+j+k+5.l+m+",
"n+o+p+q+F r+s+t+u+v+w+x+y+z+A+B+C+D+E+F+F G+H+I+J+K+L+M+N+O+P+Q+",
"R+S+4.T T+U+V+W+X+Y+Z+`+ @.@+@@@#@$@%@5.&@*@=@-@;@>@,@'@)@!@~@{@",
"]@^@T /@(@_@:@<@[@}@|@1@2@3@4@5@6@7@F 8@9@0@a@b@c@d@e@f@g@h@i@j@",
"k@l@m@n@o@p@q@r@s@t@u@v@w@x@y@z@A@B@C@D@E@F@G@H@I@J@K@n+L@M@N@O@",
"P@Q@R@S@T@U@V@W@X@%@Y@Z@`@ #.#+#@###$#%#&#*#h@=#-#6+;#>#,#'#)#!#",
"~#{#]#^#/#(#E+_#:#%@#.<#[#}#|#1#2#3#4#5#6#7#8#9#0#5.{.a#b#c#d#e#",
"f#g#h#i#j#k#l#m#n#o#p#q#r#s#t#u#v#w#x#y#z#A#B#C#D#E#F#G#H#I#J#K#",
"L#M#N#O#P#Q#R#S#T#U#V#W#X#Y#Z#`# $.$+$@$4##$$$%$&$*$=$-$;$>$,$'$",
")$!$~${$]$^$/$($_$:$<$[$}$|$1$2$3$4$5$6$7$8$9$0$a$b$c$d$e$f$g$h$",
"i$j$k$l$m$n$o$p$q$r$s$t$u$v$w$x$y$z$A$B$C$D$E$F$G$H$c q$I$J$K$L$",
"F.M$N$O$P$E T T {.Q$Q$R$S$T$U$V$W$X$Y$Z$`$ %4.F F F F .%+%@%#%$%",
"%%&%*%=%-%;%{.5.Q$Q$>%,%'%)%!%~%{%]%^%/%(%_%5.F F F :%<%[%}%|%1%",
"2%3%4%5%6%7%8%{.{.9%0%a%b%c%d%e%f%g%h%i%j%k%l%F F m%n%o%p%q%r%s%",
"t%u%v%w%x%y%z%A%B%C%D%E%F%G%H%I%J%K%L%M%N%O%P%Q%R%S%T%U%V%W%X%Y%",
"Z%`% &.&+&@&#&$&%&&&*&=&5.{.-&;&>&,&'&)&!&~&c.{&]&^&/&(&F 5._&:&",
"<&[&}&|&1&2&3&4&5&6&7&8&9&6+0&a&b&c&d&e&f&g&h&i&j&k&l&m&n&%@o&5@",
"p&q&r& %F s&t&u&v&w&x&y&z&A&B&C&D&E&F&q+T G&H&I&J&K&L&M&N&O&P&Q&",
"R&S&6+T T&U&V&W&X&Y&Z&`& *.*+*@*#*$*$.F %*&***=*-*;*>*,*'*)*!*~*",
"{*]*^*/*(*_*:*<*[*}*|*1*2*3*4*5*6*7*F 8*9*0*a*b*c*d*e*}#f*g*h*i*",
"j*k*l*m*n*]%o*D.p*q*r*s*t*u*v*w*x*y*z*A*B*C*D*E*F*G*H*I*J*K*L*M*",
"N*O*P*Q*R*S*T*U*p$4.V*W*X*Y*Z*`* =.=+=@=#=$=%=&=*=5.==-=;=>=,='=",
")=!=~={=]=^=/=(=_=6+G :=<=[=}=|=1=2=3=4=5=6=7=8=9=5.4.0=a=b=c=u.",
"d=e=f=g=h=i=j=k=X l=m=n=o=p=q=r=s=t=u=v=w=x=y=z=A=B=C=D=E=F=G=H=",
"I=J=K=L=Q&M=N=O=P=Q=R=S=T=U=V=W=X=Y=Z=`= -3=.-+-@-#-$-%-&-*-=---"};
