/* XPM */
static char * 00_xpm[] = {
"32 32 33 1",
" 	c #464646",
".	c #2C2C2C",
"+	c #202020",
"@	c #3C3C3C",
"#	c #434343",
"$	c #3F3F3F",
"%	c #2D2D2D",
"&	c #323232",
"*	c #2A2A2A",
"=	c #353535",
"-	c #3E3E3E",
";	c #383838",
">	c #373737",
",	c #292929",
"'	c #313131",
")	c #232323",
"!	c #2F2F2F",
"~	c #585858",
"{	c #4F4F4F",
"]	c #444444",
"^	c #454545",
"/	c #474747",
"(	c #4C4C4C",
"_	c #242424",
":	c #333333",
"<	c #3A3A3A",
"[	c #282828",
"}	c #393939",
"|	c #424242",
"1	c #525252",
"2	c #2E2E2E",
"3	c #414141",
"4	c #343434",
"     .++@@@@@#  @@$  .++%%&@@@@@",
"     .++@@@@@#  @@$  .++%%&@@@@@",
"     .++@@@@@#  @@$  .++%%&@@@@@",
"     .++@@@@@#  @@$  .++%%&@@@@@",
"     .++@@@@@#  @@$  .++%%&@@@@@",
"$$$$$*++&&=@@-$$&&;  .++>>=&&&&&",
"@@@@@,++%%&@@@@@%%=  .++@@>%%%%%",
"@@@@@,++%%&@@@@@%%=  .++@@>%%%%%",
"++++++++++++++++++++++++++++++++",
"++++++++++++++++++++++++++++++++",
"........''''''''++),,!''........",
"        ~~~~~~~~++,@@{~~        ",
"        ~~~~~~~~++,@@{~~        ",
"$$$$$]  ^^/(((((++,@@/((  ]$$$$$",
"@@@@@#  @@$     ++,@@#    #@@@@@",
"@@@@@#  @@$     ++,@@#    #@@@@@",
"%%%%%%%%@@@@@&%%++_%%%%%@@@@@@@@",
"%%%%%%%%@@@@@&%%++_%%%%%@@@@@@@@",
",,,,,,,,:::::.,,++),,,,,::::::::",
"++++++++++++++++++++++++++++++++",
"++++++++++++++++++++++++++++++++",
"<<<<<[++::}  -<<  |<<[++<<-     ",
"     .++@@^~~(  ~~1  .++  (~~~~~",
"     .++@@^~~(  ~~1  .++  (~~~~~",
"~~~~~'++@@$          .++%%=     ",
"~~~~~'++@@$          .++%%=     ",
"{{{{{2++>>}--3##--3  .++%%4#####",
"@@@@@,++%%%%%>@@%%=  .++%%&@@@@@",
"@@@@@,++%%%%%>@@%%=  .++%%&@@@@@",
"@@@@@,++%%%%%>@@%%=  .++%%&@@@@@",
"@@@@@,++%%%%%>@@%%=  .++%%&@@@@@",
"@@@@@,++%%%%%>@@%%=  .++%%&@@@@@"};
