/* XPM */
static char * 1_xpm[] = {
"32 32 159 2",
"  	c #372619",
". 	c #38271A",
"+ 	c #3F2D1E",
"@ 	c #402E1F",
"# 	c #443021",
"$ 	c #453121",
"% 	c #463222",
"& 	c #453122",
"* 	c #785C40",
"= 	c #826347",
"- 	c #A2785C",
"; 	c #A77C5D",
"> 	c #B08460",
", 	c #A67C5D",
"' 	c #AF8360",
") 	c #AA7F5E",
"! 	c #87664A",
"~ 	c #977155",
"{ 	c #9D7557",
"] 	c #A87D5C",
"^ 	c #A0775A",
"/ 	c #9D7459",
"( 	c #A77C5C",
"_ 	c #A3795A",
": 	c #9A7256",
"< 	c #846348",
"[ 	c #7E5F44",
"} 	c #402D1E",
"| 	c #816046",
"1 	c #906850",
"2 	c #8A654C",
"3 	c #422E20",
"4 	c #9D7558",
"5 	c #7A5A42",
"6 	c #6F4F3B",
"7 	c #7E5D45",
"8 	c #88664A",
"9 	c #8E684F",
"0 	c #7A5943",
"a 	c #946C53",
"b 	c #A97E5E",
"c 	c #A2785A",
"d 	c #4D3626",
"e 	c #634734",
"f 	c #5C4330",
"g 	c #57412C",
"h 	c #5F4532",
"i 	c #58412D",
"j 	c #5B412F",
"k 	c #4A3424",
"l 	c #73553C",
"m 	c #70523B",
"n 	c #6C4F3A",
"o 	c #513A29",
"p 	c #7E5D44",
"q 	c #966D53",
"r 	c #826147",
"s 	c #88644B",
"t 	c #795D41",
"u 	c #7F5C46",
"v 	c #5D432F",
"w 	c #836145",
"x 	c #986F54",
"y 	c #A3795B",
"z 	c #8F6A4F",
"A 	c #9A7157",
"B 	c #926A51",
"C 	c #765B3F",
"D 	c #5E4331",
"E 	c #634834",
"F 	c #7B5B41",
"G 	c #89654A",
"H 	c #A87D5E",
"I 	c #7E5C44",
"J 	c #956F53",
"K 	c #936B52",
"L 	c #74593E",
"M 	c #4E3826",
"N 	c #AC805F",
"O 	c #694C38",
"P 	c #9C7358",
"Q 	c #8C674D",
"R 	c #966D54",
"S 	c #916951",
"T 	c #503A28",
"U 	c #503A27",
"V 	c #8A674A",
"W 	c #8F6B4D",
"X 	c #A57A5D",
"Y 	c #9E7559",
"Z 	c #9A7155",
"` 	c #684B36",
" .	c #8A684C",
"..	c #3D2A1C",
"+.	c #3F2C1D",
"@.	c #AD825F",
"#.	c #9F765A",
"$.	c #654835",
"%.	c #836248",
"&.	c #553C2B",
"*.	c #483223",
"=.	c #946E50",
"-.	c #997253",
";.	c #72523E",
">.	c #3F2C1E",
",.	c #815F45",
"'.	c #976E54",
").	c #A87E5C",
"!.	c #AE825F",
"~.	c #694B38",
"{.	c #4F3A27",
"].	c #A3795C",
"^.	c #A1775B",
"/.	c #9E7459",
"(.	c #765541",
"_.	c #5F4331",
":.	c #8A644D",
"<.	c #604532",
"[.	c #805F46",
"}.	c #9A7254",
"|.	c #A47A5C",
"1.	c #9D7359",
"2.	c #71513D",
"3.	c #3B291B",
"4.	c #826045",
"5.	c #4B3725",
"6.	c #A67B5B",
"7.	c #8F6B4E",
"8.	c #A2775B",
"9.	c #9F755A",
"0.	c #A97E5D",
"a.	c #75543F",
"b.	c #563F2C",
"c.	c #4A3524",
"d.	c #866348",
"e.	c #765540",
"f.	c #533B2A",
"g.	c #7D5B44",
"h.	c #956D53",
"i.	c #9E7457",
"j.	c #9B7256",
"k.	c #72523D",
"l.	c #553F2B",
"m.	c #57402C",
"n.	c #986F55",
"o.	c #8E694E",
"p.	c #7F5D44",
"q.	c #966E54",
"r.	c #674A37",
"s.	c #664A36",
"t.	c #997256",
"u.	c #7F5E44",
"v.	c #7C5C43",
"w.	c #7A5A43",
"x.	c #805E45",
"y.	c #836147",
"z.	c #8E674E",
"A.	c #966E53",
"B.	c #956C53",
"                                                                ",
"  . + @ # $ % % % % % $ # # # % % # # # $ % & # # # # # @ + .   ",
"  + * = - ; > > > > > , - - - ' ' - - - , > ) - - - - - = * +   ",
"  @ = ! ~ { ] ] ] ] ] ^ / / / ( ( / / / ^ ] _ / / / : ~ < [ }   ",
"  # - ~ * | 1 1 1 1 1 1 1 1 1 1 1 1 1 1 1 1 1 1 1 1 | * 2 1 3   ",
"  $ ; 4 | 5 6 6 6 6 6 6 6 6 6 6 6 6 6 6 6 6 6 6 6 6 7 8 9 1 3   ",
"  % > ] 1 6                                         0 - a 1 3   ",
"  $ b c 1 6   d e f g h e e e i i e j   k l m n o   p b q 1 3   ",
"  # - / 1 6   e 1 r * s 1 1 1 t t 1 u   v > ) - n   w > x 1 3   ",
"  & ) y 1 6   e 1 r * z A B 1 t C D E F G H b ) m   I H q 1 3   ",
"  % > ] 1 6   e 1 r * J - K 1 t L   M > N - H > l   0 - a 1 3   ",
"  % > ] 1 6   O P ! * Q R S 1 T U V W , X - Y Z `   0 - a 1 3   ",
"  % > ] 1 6   n -  .* s 1 1 1 ..+.> @.- - - A 1 e   0 - a 1 3   ",
"  # X #.1 6   $.K %.* s 1 &.*.=.-.q x - / K ;.*.>.  ,.@.'.1 3   ",
"  # - / 1 6   e 1 r * s 1 *.  ).!.1 K - P 1 ~.      w > x 1 3   ",
"  # - / 1 6   e 1 r * {...=.).].].^./.S (..._.:.<.  w > x 1 3   ",
"  # ].Y 1 6   e 1 [.L {.+.}.' |.].^.1.:.2.3.<.1 e   4.' x 1 3   ",
"  % > ] 1 6   e 1 D   V > X - ' !.1 u   5.* r 1 e   0 - a 1 3   ",
"  % @.6.1 6   j u e M 7.@.8.9.0.( u a.*.b.* %.K $.  0 - a 1 3   ",
"  # - / 1 6       F > , - K 1 1 :.  *.1 s *  .- n   0 - a 1 3   ",
"  # - / 1 6   c.v d.6.y - K 1 e.;.f.D 1 s * ! P O   g., h.1 3   ",
"  # - / 1 6   l > i.1 P - K 1 ....1 1 1 s * r 1 e   w > x 1 3   ",
"  # - / 1 6   m ) j.1 '.A k.~.l.m.1 S n.o.* r 1 e   p.) q.1 3   ",
"  # - / 1 6   n - n.1 1 1 *.  L t 1 K - J * r 1 e   0 - a 1 3   ",
"  # - / 1 6   o n r.e e e >.  l.i e $.n s.g f e d   0 - a 1 3   ",
"  # - / 1 6                                         0 - a 1 3   ",
"  # - t.| p.0 0 0 u.w v.0 0 0 0 w.w w w x.0 0 0 0 0 y.8 9 1 3   ",
"  # - ~ * 8 - - - ) > , - - - - ].> > > N - - - - - 8 * 2 1 3   ",
"  @ = < 2 z.a a a A.x h.a a a a B.x x x '.a a a a a z.2 | [ }   ",
"  + * [ 1 1 1 1 1 1 1 1 1 1 1 1 1 1 1 1 1 1 1 1 1 1 1 1 [ * +   ",
"  . + } 3 3 3 3 3 3 3 3 3 3 3 3 3 3 3 3 3 3 3 3 3 3 3 3 } + .   ",
"                                                                "};
