/* XPM */
static char * 101_xpm[] = {
"32 32 248 2",
"  	c None",
". 	c #47704C",
"+ 	c #000000",
"@ 	c #000000",
"# 	c #000000",
"$ 	c #000000",
"% 	c #000000",
"& 	c #000000",
"* 	c #000000",
"= 	c #000000",
"- 	c #000000",
"; 	c #000000",
"> 	c #000000",
", 	c #000000",
"' 	c #000000",
") 	c #000000",
"! 	c #000000",
"~ 	c #000000",
"{ 	c #000000",
"] 	c #000000",
"^ 	c #000000",
"/ 	c #000000",
"( 	c #010000",
"_ 	c #060000",
": 	c #000000",
"< 	c #020000",
"[ 	c #000000",
"} 	c #000000",
"| 	c #000000",
"1 	c #060000",
"2 	c #000000",
"3 	c #000000",
"4 	c #FB0000",
"5 	c #060000",
"6 	c #000000",
"7 	c #000000",
"8 	c #000000",
"9 	c #010000",
"0 	c #7F0000",
"a 	c #000000",
"b 	c #000000",
"c 	c #050000",
"d 	c #050000",
"e 	c #000000",
"f 	c #000000",
"g 	c #000000",
"h 	c #000000",
"i 	c #010000",
"j 	c #000000",
"k 	c #000000",
"l 	c #000000",
"m 	c #010000",
"n 	c #000000",
"o 	c #A90000",
"p 	c #010000",
"q 	c #3A0000",
"r 	c #000000",
"s 	c #000000",
"t 	c #000000",
"u 	c #000000",
"v 	c #030000",
"w 	c #000000",
"x 	c #BB0000",
"y 	c #010000",
"z 	c #060000",
"A 	c #000000",
"B 	c #000000",
"C 	c #000000",
"D 	c #000000",
"E 	c #020000",
"F 	c #040000",
"G 	c #960000",
"H 	c #050000",
"I 	c #000000",
"J 	c #000000",
"K 	c #000000",
"L 	c #050000",
"M 	c #000000",
"N 	c #020000",
"O 	c #050000",
"P 	c #020000",
"Q 	c #050000",
"R 	c #060000",
"S 	c #720000",
"T 	c #020000",
"U 	c #880000",
"V 	c #2A0000",
"W 	c #000000",
"X 	c #1D0000",
"Y 	c #030000",
"Z 	c #010000",
"` 	c #070000",
" .	c #660000",
"..	c #1B0000",
"+.	c #000000",
"@.	c #A20000",
"#.	c #020000",
"$.	c #000000",
"%.	c #070000",
"&.	c #8A0000",
"*.	c #000000",
"=.	c #930000",
"-.	c #A50000",
";.	c #000000",
">.	c #110000",
",.	c #A20000",
"'.	c #000000",
").	c #070000",
"!.	c #040000",
"~.	c #1A0000",
"{.	c #AA0000",
"].	c #C30000",
"^.	c #720000",
"/.	c #240000",
"(.	c #600000",
"_.	c #4E0000",
":.	c #280000",
"<.	c #030000",
"[.	c #000000",
"}.	c #000000",
"|.	c #000000",
"1.	c #000000",
"2.	c #000000",
"3.	c #000000",
"4.	c #080000",
"5.	c #000000",
"6.	c #980000",
"7.	c #000000",
"8.	c #9D0000",
"9.	c #000000",
"0.	c #000000",
"a.	c #000000",
"b.	c #480000",
"c.	c #000000",
"d.	c #FF0000",
"e.	c #000000",
"f.	c #FE0000",
"g.	c #FD0000",
"h.	c #C30000",
"i.	c #C20000",
"j.	c #070000",
"k.	c #050000",
"l.	c #030000",
"m.	c #C10000",
"n.	c #C40000",
"o.	c #FB0000",
"p.	c #C90000",
"q.	c #BC0000",
"r.	c #FC0000",
"s.	c #C00000",
"t.	c #BE0000",
"u.	c #F90000",
"v.	c #BF0000",
"w.	c #B00000",
"x.	c #920000",
"y.	c #AA0000",
"z.	c #010000",
"A.	c #BD0000",
"B.	c #C50000",
"C.	c #D40000",
"D.	c #F10000",
"E.	c #D70000",
"F.	c #CC0000",
"G.	c #FA0000",
"H.	c #F80000",
"I.	c #D90000",
"J.	c #D30000",
"K.	c #FF0303",
"L.	c #ED0000",
"M.	c #CE0000",
"N.	c #DB0000",
"O.	c #D20000",
"P.	c #F80000",
"Q.	c #B60000",
"R.	c #700000",
"S.	c #EB0000",
"T.	c #D50000",
"U.	c #CF0000",
"V.	c #F70000",
"W.	c #E90000",
"X.	c #B90000",
"Y.	c #C70000",
"Z.	c #D00000",
"`.	c #960000",
" +	c #FF0505",
".+	c #C60000",
"++	c #0E0000",
"@+	c #AF0000",
"#+	c #DE0000",
"$+	c #E70000",
"%+	c #0B0000",
"&+	c #810000",
"*+	c #F50000",
"=+	c #E10000",
"-+	c #BB0000",
";+	c #990000",
">+	c #B30000",
",+	c #AC0000",
"'+	c #3C0000",
")+	c #E50000",
"!+	c #F40000",
"~+	c #FF1010",
"{+	c #850000",
"]+	c #FFA0A0",
"^+	c #FFAEAE",
"/+	c #510000",
"(+	c #430000",
"_+	c #A60000",
":+	c #FF0E0E",
"<+	c #EF0000",
"[+	c #FF8A8A",
"}+	c #FF8787",
"|+	c #FFACAC",
"1+	c #FFB7B7",
"2+	c #740000",
"3+	c #FF1C1C",
"4+	c #7D0000",
"5+	c #1D0000",
"6+	c #240000",
"7+	c #2B0000",
"8+	c #610000",
"9+	c #3A0000",
"0+	c #140000",
"a+	c #FF9090",
"b+	c #FFC6C6",
"c+	c #FFB4B4",
"d+	c #690000",
"e+	c #FFB1B1",
"f+	c #790000",
"g+	c #950000",
"h+	c #8F0000",
"i+	c #8A0000",
"j+	c #FFA9A9",
"k+	c #FFBCBC",
"l+	c #1A0000",
"m+	c #A10000",
"n+	c #300000",
"o+	c #FFC9C9",
"p+	c #FFC2C2",
"q+	c #490000",
"r+	c #FF9292",
"s+	c #FF7373",
"t+	c #FFA3A3",
"u+	c #FF7B7B",
"v+	c #FF0707",
"w+	c #FF2727",
"x+	c #310000",
"y+	c #590000",
"                                                                ",
"                                                                ",
"                                                                ",
"                                                                ",
"                                                                ",
"                                                                ",
"                                                                ",
"                                                                ",
"                          h+>+      g+>+=.                      ",
"                        -.H.d.m.  2+*+w+!+2+                    ",
"                      + =+d.d.f.p.)+d.s+s+Q.                    ",
"                      + =+d.d.d.d.d.d.d.K.Q.                    ",
"                        p.g.d.d.d.d.d.d.d.>+                    ",
"                        f+T.d.d.d.d.d.d.=+                      ",
"                          x.=+d.d.d.d.D.d+                      ",
"                            o <+d.d.d.h+                        ",
"                              >+V.d._+                          ",
"                              y+F.p.                            ",
"                                0                               ",
"                                                                ",
"                                                                ",
"                                                                ",
"                                                                ",
"                                                                ",
"                                                                ",
"                                                                ",
"                                                                ",
"                                                                ",
"                                                                ",
"                                                                ",
"                                                                ",
"                                                                "};
