/* XPM */
static char * E_xpm[] = {
"32 32 856 2",
"  	c #A51D15",
". 	c #C92017",
"+ 	c #A81B15",
"@ 	c #E9221B",
"# 	c #AE1D11",
"$ 	c #E1251D",
"% 	c #D7251B",
"& 	c #EB261F",
"* 	c #E12820",
"= 	c #D5251D",
"- 	c #FB2B23",
"; 	c #DE2C23",
"> 	c #F32D24",
", 	c #F62D24",
"' 	c #EE2C23",
") 	c #F62D23",
"! 	c #E92A21",
"~ 	c #ED2C24",
"{ 	c #F82E23",
"] 	c #F72D24",
"^ 	c #EC2D24",
"/ 	c #F82E25",
"( 	c #DF2A1F",
"_ 	c #EF2C23",
": 	c #E72C24",
"< 	c #E22B25",
"[ 	c #D12922",
"} 	c #C32418",
"| 	c #DA2B22",
"1 	c #E12C22",
"2 	c #9B1F10",
"3 	c #E8231A",
"4 	c #B81C15",
"5 	c #CC2119",
"6 	c #B81D17",
"7 	c #EB231D",
"8 	c #BD2116",
"9 	c #EE271E",
"0 	c #D9251D",
"a 	c #EC2821",
"b 	c #DE2820",
"c 	c #F52A21",
"d 	c #E62C21",
"e 	c #F32C22",
"f 	c #F12D25",
"g 	c #F92C22",
"h 	c #F32C23",
"i 	c #EF2B21",
"j 	c #F32B22",
"k 	c #F92E25",
"l 	c #F22D23",
"m 	c #FC2F25",
"n 	c #E52B20",
"o 	c #F62E25",
"p 	c #D92A22",
"q 	c #D72A21",
"r 	c #D6281F",
"s 	c #E82C21",
"t 	c #E62C22",
"u 	c #E62D24",
"v 	c #9C1D10",
"w 	c #A21F19",
"x 	c #911911",
"y 	c #E0211B",
"z 	c #C91D16",
"A 	c #D01E17",
"B 	c #C61E18",
"C 	c #EC241B",
"D 	c #D12016",
"E 	c #F22720",
"F 	c #EA2820",
"G 	c #EA2922",
"H 	c #E6281F",
"I 	c #F12B22",
"J 	c #F42D24",
"K 	c #F22A22",
"L 	c #FB2B22",
"M 	c #F3261E",
"N 	c #F42A21",
"O 	c #F42C23",
"P 	c #FB2D25",
"Q 	c #EE2C22",
"R 	c #FA2E24",
"S 	c #DE2B24",
"T 	c #E52C25",
"U 	c #E32C20",
"V 	c #E12A1F",
"W 	c #EF2C21",
"X 	c #EC2C22",
"Y 	c #9C1E13",
"Z 	c #C2261E",
"` 	c #B62418",
" .	c #E8221B",
"..	c #AE1912",
"+.	c #D21F17",
"@.	c #DB201B",
"#.	c #D62219",
"$.	c #D2231C",
"%.	c #E9251A",
"&.	c #E5251A",
"*.	c #ED2920",
"=.	c #F0271F",
"-.	c #EA2921",
";.	c #F92A21",
">.	c #F22A21",
",.	c #FA2A21",
"'.	c #F2271D",
").	c #F3271F",
"!.	c #F72820",
"~.	c #F72A21",
"{.	c #F92B23",
"].	c #FC2E26",
"^.	c #EE2D25",
"/.	c #E92D26",
"(.	c #EB2D23",
"_.	c #DD291F",
":.	c #FA2D24",
"<.	c #AB2115",
"[.	c #DA2B21",
"}.	c #AA2114",
"|.	c #C1261E",
"1.	c #AF2016",
"2.	c #DB2019",
"3.	c #D41C15",
"4.	c #C81B14",
"5.	c #E8221C",
"6.	c #DD2118",
"7.	c #DE241E",
"8.	c #EA231C",
"9.	c #F4261D",
"0.	c #EF2920",
"a.	c #F2281F",
"b.	c #FB2920",
"c.	c #F82920",
"d.	c #FA261D",
"e.	c #F72920",
"f.	c #FA2920",
"g.	c #FA271F",
"h.	c #FC2921",
"i.	c #EC2B22",
"j.	c #EB2E26",
"k.	c #F12E25",
"l.	c #DE2A1F",
"m.	c #FD2E24",
"n.	c #C42619",
"o.	c #E42B22",
"p.	c #B6241A",
"q.	c #B02114",
"r.	c #DA1F16",
"s.	c #D82118",
"t.	c #C81E17",
"u.	c #E9201B",
"v.	c #CB1F18",
"w.	c #EF231C",
"x.	c #E7231D",
"y.	c #E72820",
"z.	c #E8261E",
"A.	c #F8261F",
"B.	c #F5271E",
"C.	c #F42920",
"D.	c #F8291F",
"E.	c #FD2720",
"F.	c #FB2820",
"G.	c #FC291F",
"H.	c #FA261E",
"I.	c #FD271F",
"J.	c #FD2820",
"K.	c #FC271F",
"L.	c #F02C20",
"M.	c #F12F25",
"N.	c #F52E23",
"O.	c #E82B21",
"P.	c #FB2E26",
"Q.	c #EF2C22",
"R.	c #E02920",
"S.	c #E22C1F",
"T.	c #D82921",
"U.	c #DD2B22",
"V.	c #A01F12",
"W.	c #CA271F",
"X.	c #B52017",
"Y.	c #B51B0F",
"Z.	c #EB2018",
"`.	c #D7201A",
" +	c #E9241C",
".+	c #D9241D",
"++	c #EE251E",
"@+	c #F0261E",
"#+	c #EE261D",
"$+	c #F92720",
"%+	c #F8271E",
"&+	c #F56C63",
"*+	c #F62E1E",
"=+	c #F62E1D",
"-+	c #F62D1C",
";+	c #F62D1D",
">+	c #F7291E",
",+	c #F6281F",
"'+	c #F12D23",
")+	c #F92D24",
"!+	c #E52B23",
"~+	c #E52B22",
"{+	c #EA2C21",
"]+	c #F02D23",
"^+	c #CA261A",
"/+	c #CD271D",
"(+	c #EB2D24",
"_+	c #B92318",
":+	c #EC211A",
"<+	c #ED231C",
"[+	c #C61F14",
"}+	c #D31E14",
"|+	c #EF241B",
"1+	c #EC231C",
"2+	c #EC261F",
"3+	c #EF261F",
"4+	c #F7251E",
"5+	c #F4271D",
"6+	c #FC271E",
"7+	c #F94427",
"8+	c #F3B06D",
"9+	c #F1D48E",
"0+	c #F5DFAD",
"a+	c #F2D996",
"b+	c #EDCA60",
"c+	c #F45126",
"d+	c #F62A22",
"e+	c #E22922",
"f+	c #E72B20",
"g+	c #F12C22",
"h+	c #EC2C23",
"i+	c #DB291E",
"j+	c #F22F25",
"k+	c #CA251D",
"l+	c #A02017",
"m+	c #C0271E",
"n+	c #F2221B",
"o+	c #EB2119",
"p+	c #F5241B",
"q+	c #F3221B",
"r+	c #DC2017",
"s+	c #E6221A",
"t+	c #F4251D",
"u+	c #F7251D",
"v+	c #F4261E",
"w+	c #FC251E",
"x+	c #F8251D",
"y+	c #FA281D",
"z+	c #EFA73E",
"A+	c #F29D38",
"B+	c #EFDE9A",
"C+	c #E9D063",
"D+	c #E9CE5A",
"E+	c #E8C946",
"F+	c #F48E37",
"G+	c #F39E55",
"H+	c #F62920",
"I+	c #EC291F",
"J+	c #F62C22",
"K+	c #F02D22",
"L+	c #DC2920",
"M+	c #C7261D",
"N+	c #DC2B22",
"O+	c #CC271C",
"P+	c #AC2014",
"Q+	c #A11A13",
"R+	c #D1211B",
"S+	c #F5241E",
"T+	c #FA241B",
"U+	c #FC231B",
"V+	c #F4241D",
"W+	c #DE221A",
"X+	c #FB251D",
"Y+	c #FD261D",
"Z+	c #FA251E",
"`+	c #F8261B",
" @	c #F48534",
".@	c #F49734",
"+@	c #E7C83D",
"@@	c #E8C83C",
"#@	c #FA5728",
"$@	c #F0802E",
"%@	c #F8271F",
"&@	c #F72B21",
"*@	c #EE2A21",
"=@	c #EF2D24",
"-@	c #EA2D23",
";@	c #EB2D25",
">@	c #D5281D",
",@	c #D2271C",
"'@	c #EB2C22",
")@	c #F22E24",
"!@	c #ED261E",
"~@	c #D5221B",
"{@	c #B91C16",
"]@	c #BF1E19",
"^@	c #F7261F",
"/@	c #FC261D",
"(@	c #F2251D",
"_@	c #E8241C",
":@	c #F7261C",
"<@	c #FC251D",
"[@	c #FD261E",
"}@	c #F0A03A",
"|@	c #F1A23A",
"1@	c #F28C37",
"2@	c #F29134",
"3@	c #FA2820",
"4@	c #FA2B21",
"5@	c #F82B22",
"6@	c #EF2D23",
"7@	c #E42C21",
"8@	c #EA2B20",
"9@	c #F52F25",
"0@	c #D8291E",
"a@	c #A92116",
"b@	c #70140A",
"c@	c #C32216",
"d@	c #CD2117",
"e@	c #DD2117",
"f@	c #F1251C",
"g@	c #F3281F",
"h@	c #DE251D",
"i@	c #DF241E",
"j@	c #E8261F",
"k@	c #F5251E",
"l@	c #F8261D",
"m@	c #FD251D",
"n@	c #FD251E",
"o@	c #FC241B",
"p@	c #F49636",
"q@	c #EAC73E",
"r@	c #F75627",
"s@	c #FB2A1E",
"t@	c #FC2820",
"u@	c #F5291F",
"v@	c #ED2D24",
"w@	c #E22B23",
"x@	c #D1281F",
"y@	c #C0261E",
"z@	c #B2221A",
"A@	c #C2251F",
"B@	c #CD281E",
"C@	c #CD261D",
"D@	c #E2241A",
"E@	c #F4271F",
"F@	c #EA261E",
"G@	c #E6241B",
"H@	c #EB271D",
"I@	c #F8261E",
"J@	c #F5251D",
"K@	c #F5261E",
"L@	c #FA251D",
"M@	c #FD271E",
"N@	c #FD231B",
"O@	c #FA301C",
"P@	c #EEAC3A",
"Q@	c #E9C43D",
"R@	c #F07E2C",
"S@	c #FD281D",
"T@	c #FB261D",
"U@	c #EB291F",
"V@	c #E72B23",
"W@	c #E32921",
"X@	c #F82F26",
"Y@	c #E22C23",
"Z@	c #D42B21",
"`@	c #CB2A21",
" #	c #CF2820",
".#	c #D32319",
"+#	c #CD2116",
"@#	c #CB2318",
"##	c #D32218",
"$#	c #DC261B",
"%#	c #E4251C",
"&#	c #EA271F",
"*#	c #EE251C",
"=#	c #F6271E",
"-#	c #FE271E",
";#	c #FD251C",
">#	c #FC221A",
",#	c #FD211A",
"'#	c #FA5432",
")#	c #EDB83C",
"!#	c #F49438",
"~#	c #FC231A",
"{#	c #FE221B",
"]#	c #FD2A21",
"^#	c #FC2B22",
"/#	c #F92D22",
"(#	c #EF2B22",
"_#	c #E52A20",
":#	c #DA281D",
"<#	c #CF251A",
"[#	c #C02014",
"}#	c #B12012",
"|#	c #E1251C",
"1#	c #E7271E",
"2#	c #F2271E",
"3#	c #F9271F",
"4#	c #FD2921",
"5#	c #F92820",
"6#	c #F5261D",
"7#	c #FA271E",
"8#	c #FE241C",
"9#	c #FE231B",
"0#	c #FE2019",
"a#	c #FC3933",
"b#	c #F29B34",
"c#	c #F95426",
"d#	c #FD241D",
"e#	c #FA281F",
"f#	c #F0281F",
"g#	c #F32A20",
"h#	c #F52C21",
"i#	c #F12B21",
"j#	c #EA2920",
"k#	c #E42A21",
"l#	c #DE2821",
"m#	c #AC2317",
"n#	c #B02217",
"o#	c #B12319",
"p#	c #AA2014",
"q#	c #A72116",
"r#	c #B9241B",
"s#	c #CC271E",
"t#	c #DD2921",
"u#	c #F02820",
"v#	c #F6271F",
"w#	c #FD241C",
"x#	c #FD231C",
"y#	c #FD221B",
"z#	c #FA5523",
"A#	c #ECBC3B",
"B#	c #F29E35",
"C#	c #FB271D",
"D#	c #F4261F",
"E#	c #EB261D",
"F#	c #EF2A21",
"G#	c #FB2A21",
"H#	c #FD2B22",
"I#	c #FE2A22",
"J#	c #FD2920",
"K#	c #FE2921",
"L#	c #FB291F",
"M#	c #7E1B15",
"N#	c #971B12",
"O#	c #B82019",
"P#	c #DB2720",
"Q#	c #F22B20",
"R#	c #FA3D34",
"S#	c #FB3D35",
"T#	c #FB2E25",
"U#	c #FB2C23",
"V#	c #FB271F",
"W#	c #FB261F",
"X#	c #FA564E",
"Y#	c #FA2B23",
"Z#	c #EF9E3C",
"`#	c #E8B43B",
" $	c #EBB13B",
".$	c #F27331",
"+$	c #FC241D",
"@$	c #FB251E",
"#$	c #F82821",
"$$	c #FA2821",
"%$	c #EE2921",
"&$	c #E42920",
"*$	c #DE271E",
"=$	c #CE251C",
"-$	c #D02319",
";$	c #DE241A",
">$	c #E8261D",
",$	c #EB271E",
"'$	c #E72920",
")$	c #F82C22",
"!$	c #EE6B66",
"~$	c #C1AD59",
"{$	c #886B35",
"]$	c #B29B2D",
"^$	c #B3992C",
"/$	c #D5BE35",
"($	c #9F832C",
"_$	c #BCA432",
":$	c #BF716E",
"<$	c #BFA638",
"[$	c #B21F19",
"}$	c #C4AE38",
"|$	c #AB2E1F",
"1$	c #B7A230",
"2$	c #D3B941",
"3$	c #D5BC34",
"4$	c #B69D3A",
"5$	c #B9872E",
"6$	c #B4802E",
"7$	c #C47E2E",
"8$	c #B67D2D",
"9$	c #B7942D",
"0$	c #DA261E",
"a$	c #C7231B",
"b$	c #A11D14",
"c$	c #7E170B",
"d$	c #87180B",
"e$	c #DC271C",
"f$	c #E02C20",
"g$	c #D62B21",
"h$	c #D42B23",
"i$	c #DE2B23",
"j$	c #DD3229",
"k$	c #CA9236",
"l$	c #886939",
"m$	c #C89233",
"n$	c #E2A443",
"o$	c #443C1C",
"p$	c #E0A447",
"q$	c #D59C3B",
"r$	c #A92722",
"s$	c #D79E3E",
"t$	c #AA1F1A",
"u$	c #E0A544",
"v$	c #8E5C2E",
"w$	c #D49939",
"x$	c #80612B",
"y$	c #CA933A",
"z$	c #8C672E",
"A$	c #E0A03B",
"B$	c #B08032",
"C$	c #C77832",
"D$	c #BB7B30",
"E$	c #CB9131",
"F$	c #F1261E",
"G$	c #DC231A",
"H$	c #CE2519",
"I$	c #B62017",
"J$	c #C2281F",
"K$	c #BA2820",
"L$	c #BD251C",
"M$	c #CF281E",
"N$	c #F13028",
"O$	c #8F5D24",
"P$	c #E78E29",
"Q$	c #915D22",
"R$	c #DC8B2C",
"S$	c #A92721",
"T$	c #DE8A2A",
"U$	c #D38325",
"V$	c #AA2622",
"W$	c #D48527",
"X$	c #AA1D19",
"Y$	c #F1962C",
"Z$	c #EF9225",
"`$	c #D18124",
" %	c #BC4F27",
".%	c #CB7B28",
"+%	c #BE5626",
"@%	c #F79623",
"#%	c #E38D24",
"$%	c #CD6627",
"%%	c #B46324",
"&%	c #BB731F",
"*%	c #C3231C",
"=%	c #E3241E",
"-%	c #F6241E",
";%	c #E4261E",
">%	c #BE2218",
",%	c #A82216",
"'%	c #BE261A",
")%	c #DC2D24",
"!%	c #E72D23",
"~%	c #EB2C21",
"{%	c #7E2521",
"]%	c #D05726",
"^%	c #4D201F",
"/%	c #D55F2B",
"(%	c #A22520",
"_%	c #D85E2D",
":%	c #CD5827",
"<%	c #A12520",
"[%	c #CF592A",
"}%	c #AB1E1A",
"|%	c #EB662D",
"1%	c #CE5C29",
"2%	c #CB5826",
"3%	c #B63C28",
"4%	c #C55429",
"5%	c #B83D26",
"6%	c #C15A2B",
"7%	c #E9632A",
"8%	c #BE4726",
"9%	c #893324",
"0%	c #883621",
"a%	c #CD221A",
"b%	c #9E1D17",
"c%	c #C31E16",
"d%	c #EB251F",
"e%	c #D02C24",
"f%	c #D3291F",
"g%	c #D92B20",
"h%	c #E62E24",
"i%	c #D6281E",
"j%	c #C2251D",
"k%	c #C72D26",
"l%	c #B33A2D",
"m%	c #97251F",
"n%	c #B03C2E",
"o%	c #BB3B33",
"p%	c #9B372C",
"q%	c #9E372A",
"r%	c #B93B33",
"s%	c #9A372B",
"t%	c #AE2E2A",
"u%	c #C3534A",
"v%	c #421D1D",
"w%	c #B23B2E",
"x%	c #BA3E36",
"y%	c #CB4034",
"z%	c #9D352F",
"A%	c #97352A",
"B%	c #A33A2E",
"C%	c #BE372D",
"D%	c #AC382E",
"E%	c #AE362A",
"F%	c #D4231C",
"G%	c #CF211A",
"H%	c #E7261E",
"I%	c #C32019",
"J%	c #79140F",
"K%	c #D0281E",
"L%	c #D42B22",
"M%	c #D02920",
"N%	c #AC2217",
"O%	c #C92820",
"P%	c #EA2C22",
"Q%	c #D22C24",
"R%	c #842522",
"S%	c #D22D25",
"T%	c #7B2320",
"U%	c #7E2523",
"V%	c #9F2420",
"W%	c #8E2522",
"X%	c #812220",
"Y%	c #A0221F",
"Z%	c #D4241F",
"`%	c #812725",
" &	c #B92622",
".&	c #7C221F",
"+&	c #752320",
"@&	c #782221",
"#&	c #70231F",
"$&	c #922823",
"%&	c #90221F",
"&&	c #C27F7C",
"*&	c #922722",
"=&	c #741F1C",
"-&	c #AD201A",
";&	c #C02017",
">&	c #C01D16",
",&	c #BD1D17",
"'&	c #DF241C",
")&	c #BC261F",
"!&	c #B32517",
"~&	c #992117",
"{&	c #CB2820",
"]&	c #E62C20",
"^&	c #E52A21",
"/&	c #F82F25",
"(&	c #F42A20",
"_&	c #FC2720",
":&	c #FB281F",
"<&	c #F7281E",
"[&	c #FE281F",
"}&	c #F7281F",
"|&	c #F62921",
"1&	c #F22920",
"2&	c #E82720",
"3&	c #FC2A21",
"4&	c #E8463F",
"5&	c #DF2921",
"6&	c #E7251E",
"7&	c #E4251D",
"8&	c #B61D17",
"9&	c #921A0E",
"0&	c #BA1E14",
"a&	c #A01912",
"b&	c #9B2115",
"c&	c #972019",
"d&	c #C6271E",
"e&	c #E72C22",
"f&	c #D5281B",
"g&	c #EC2C20",
"h&	c #E72D25",
"i&	c #DD2A21",
"j&	c #FA2D25",
"k&	c #FD2E26",
"l&	c #F7271F",
"m&	c #F82921",
"n&	c #F6261E",
"o&	c #FD291F",
"p&	c #F92920",
"q&	c #F8281F",
"r&	c #EA2A20",
"s&	c #FC2B23",
"t&	c #E02A20",
"u&	c #EE2920",
"v&	c #F72921",
"w&	c #D9241B",
"x&	c #D0251C",
"y&	c #E1241E",
"z&	c #C41D18",
"A&	c #7E160E",
"B&	c #991C0F",
"C&	c #871D15",
"D&	c #C1261C",
"E&	c #C42519",
"F&	c #E02C25",
"G&	c #CF2920",
"H&	c #EF2E25",
"I&	c #F72E25",
"J&	c #EE2D23",
"K&	c #F92A22",
"L&	c #F32920",
"M&	c #FA291F",
"N&	c #F52D24",
"O&	c #F02D25",
"P&	c #F92C23",
"Q&	c #D3261E",
"R&	c #EC2820",
"S&	c #CE251B",
"T&	c #C31F19",
"U&	c #D9241C",
"V&	c #CA1F18",
"W&	c #CB1D18",
"X&	c #7E150D",
"Y&	c #C6271C",
"Z&	c #D52C21",
"`&	c #B42215",
" *	c #EA2D24",
".*	c #DC2B23",
"+*	c #CB281E",
"@*	c #E42D24",
"#*	c #E32B23",
"$*	c #F92E23",
"%*	c #F82A22",
"&*	c #EF2921",
"**	c #F52C24",
"=*	c #FB2A22",
"-*	c #F42D23",
";*	c #F62D25",
">*	c #E12C24",
",*	c #FC2C23",
"'*	c #CC241B",
")*	c #F42820",
"!*	c #E32621",
"~*	c #C12118",
"{*	c #B11E16",
"]*	c #D3221A",
"^*	c #BD1B15",
"/*	c #C71F17",
"(*	c #BE281E",
"_*	c #AA2213",
":*	c #DA2921",
"<*	c #C1281D",
"[*	c #A82116",
"}*	c #FD2E27",
"|*	c #E02B23",
"1*	c #E82C22",
"2*	c #EC2F25",
"3*	c #F42B24",
"4*	c #F92E24",
"5*	c #E92921",
"6*	c #F72C22",
"7*	c #EB2C23",
"8*	c #FC2B21",
"9*	c #C8271E",
"0*	c #C92219",
"a*	c #F52620",
"b*	c #D8231D",
"c*	c #B32016",
"d*	c #A21B16",
"e*	c #CB1F16",
"f*	c #AF1B16",
"g*	c #AB2114",
"h*	c #DF2D24",
"i*	c #DA2A20",
"j*	c #AD261D",
"k*	c #901C12",
"l*	c #ED2D23",
"m*	c #F32D25",
"n*	c #DF2B22",
"o*	c #DB2A20",
"p*	c #EE2E25",
"q*	c #E42A20",
"r*	c #F42D25",
"s*	c #F53026",
"t*	c #EB3027",
"u*	c #F42C22",
"v*	c #ED2B22",
"w*	c #EE2821",
"x*	c #B8221B",
"y*	c #C6241B",
"z*	c #F0251E",
"A*	c #D0231C",
"B*	c #A31E14",
"C*	c #941811",
"D*	c #C22117",
"E*	c #DF9190",
"F*	c #E7918F",
"G*	c #BE918F",
"H*	c #BA908E",
"I*	c #D1918E",
"J*	c #F8918F",
"K*	c #D7908F",
"L*	c #F39290",
"M*	c #E6918F",
"N*	c #E9928F",
"O*	c #F29290",
"P*	c #EA928F",
"Q*	c #EA9290",
"R*	c #EB918F",
"S*	c #F5928F",
"T*	c #F3918F",
"U*	c #EB9390",
"V*	c #F2928F",
"W*	c #F8928F",
"X*	c #E5918F",
"Y*	c #EE9290",
"Z*	c #F89290",
"`*	c #F7918E",
" =	c #CF908F",
".=	c #CC908E",
"+=	c #E3908E",
"@=	c #E4908E",
"#=	c #D98F8E",
"$=	c #AD8F8E",
"%=	c #B8908F",
"&=	c #FFFFFF",
"*=	c #F9FAFA",
"==	c #EAEAEA",
"-=	c #F1F1F1",
";=	c #EBEBEB",
">=	c #ECECEC",
",=	c #EEEEEE",
"'=	c #F6F7F7",
")=	c #E8E8E8",
"!=	c #E4E4E4",
"~=	c #DBDBDB",
"{=	c #E9E9E9",
"]=	c #F5F4F4",
"^=	c #FEFFFF",
"/=	c #F7F7F7",
"(=	c #E2E2E2",
"_=	c #E5E5E5",
":=	c #E6E6E6",
"<=	c #E7E7E7",
"[=	c #EDEDED",
"}=	c #FBFBFB",
"  . + @ # $ % & * = - ; > , ' ) ! ~ { ] ^ / ( _ : < [ } _ | 1 2 ",
"3 4 5 6 7 8 9 0 a b c d e ] f g h i j k l m n o p q r s t u v w ",
"x y z A B C D E F G H I J - K L M N O o P Q R S T U V W X Y Z ` ",
" ...+.@.#.$.%.&.*.=.-.;.>.,.'.,.).!.~.{.].d ^./.(._.:.Q <.[.}.|.",
"1.2.3.4.5.6.7.8.9.0.E a.!.b.c.d.e.f.g.h.i.] j.k.l.m.Q n.o.p.; q.",
"r.s.t.u.v.w.x.y.z.A.B.C.D.E.F.G.H.I.J.K.L.M.N.O.P.Q.R.S.T.U.V.W.",
"X.Y.Z.`. +.+++@+@+#+$+g.%+F.&+*+=+-+;+>+,+,.'+)+!+~+{+]+^+/+(+_+",
":+<+[+}+|+1+2+3+4+5+9.6+H.7+8+9+0+a+b+c+;.c.d+e+f+g+h+i+j+k+l+m+",
"n+o+p+q+r+s+t+u+v+w+x+d.y+z+A+B+C+D+E+F+G+H+I+C.J+O.K+L+M+N+O+P+",
"Q+R+S+T+U+V+W+ +X+w+Y+Z+`+ @.@+@@@@@@@#@$@%@,.&@*@=@-@;@>@,@'@)@",
"!@~@{@]@~@^@/@(@_@:@<@[@d.}@|@@@@@@@@@1@2@K.3@4@5@6@7@8@9@0@a@b@",
"c@d@e@f@g@h@i@j@k@l@w+m@n@o@p@@@@@@@q@r@s@J.t@u@v@w@x@y@z@A@B@C@",
"D@@+E@F@G@H@a.I@J@K@L@M@N@N@O@P@@@Q@R@S@T@9.U@V@W@=@X@_ Y@Z@`@ #",
".#+#@###$#%#&#*#=#K.m@-#;#>#,#'#)#!#~#{#w+E.K.]#^#/#(#_#:#<#[#}#",
"|#1#F 2#3#4#h.h.5#6#7#m@8#9#0#a#b#c#,#d#d#t@e#H+f#>.g#h#i#j#k#l#",
"m#n#o#p#q#r#s#t#u#v#6+[@w#x#y#z#A#B#~#w#C#D#E#F#G#H#I#J#K#L#,+v#",
"M#N#O#P#Q#R#S#T#U#- K.V#W#X#Y#Z#`# $.$+$@$#$$$%$&$*$=$-$;$>$!@,$",
"'$N ^#)$g#!$~${$]$^$/$($_$:$<$[$}$|$1$2$3$4$5$6$7$8$9$0$a$b$c$d$",
"e$f$g$h$i$j$k$l$m$n$o$p$q$r$s$t$u$v$w$x$y$z$A$B$C$D$E$F$G$H$. I$",
"J$K$L$M$V N$O$P$Q$R$S$T$U$V$W$X$Y$Z$`$ %.%+%@%#%$%%%&%*%=%-%;%>%",
",%'%)%!%~%)@{%]%^%/%(%_%:%<%[%}%|%1%2%3%4%5%6%7%8%9%0%2+a%b%c%d%",
"e%f%g%h%i%j%k%l%m%n%o%p%q%r%s%t%u%v%w%x%y%z%A%B%C%D%E%F%G%H%I%J%",
"K%L%M%N%O%P%Q%R%S%T%U%V%W%X%Y%Z%`% &.&+&@&#&$&%&&&*&=&-&;&>&,&'&",
")&!&~&{&]&k#~%^ ^&/&/ (&_&:&<&/@x+[&7#}&|&1&2&3&4&5&6&7&8&9&0&a&",
"b&c&d&e&f&g&h&i&j&^.k&i G#l&m&J.n&o&p&q&r&s&t&u&v&w&x&y&w&z&A&B&",
"C&D&Y@E&_ F&G&h+H&I&J&, K&L&(@M&N&:&H+c =@O&P&Q&a.R&S&T&U&V&W&X&",
"Y&Z&`& *.*+*s#k&@*T##*$*%*&***%+F#=*C.-*;*>*,*^&'*)*!*~*{*]*^*/*",
"(*_*u :*<*[*}*|*/ 1*2*=@g+3*E#4*5*e.6*7*] -@!+8*9*0*a*b*c*d*e*f*",
"g*h*i*j*k*l*m*n*J o*_ p*q*r*s*/&t*u*T#u K+v*.*G#w*x*y*z*A*B*C*D*",
"E*F*G*H*I*J*K*L*M*N*O*P*Q*R*S*T*U*V*W*X*Y*Z*X*X*`* =.=+=@=#=$=%=",
"&=&=&=&=&=&=&=&=&=&=*===-=;=>=,='=)=!=~={=]=&=&=&=&=&=&=&=&=&=^=",
"&=&=&=&=&=&=&=&=&=&=/=(=-=_=:=<=>=;=>=,=[=}=&=&=&=&=&=&=&=&=&=&="};
