/* XPM */
static char * pacMan22_xpm[] = {
"96 128 59 1",
" 	c None",
".	c #452B2B",
"+	c #291F14",
"@	c #78523D",
"#	c #493231",
"$	c #2F261B",
"%	c #A17854",
"&	c #C2A678",
"*	c #7D5844",
"=	c #A47D5A",
"-	c #C59896",
";	c #FFD9AD",
">	c #302E2C",
",	c #BC8683",
"'	c #753E2D",
")	c #AA8565",
"!	c #473F35",
"~	c #7D4330",
"{	c #131313",
"]	c #ECBB92",
"^	c #969696",
"/	c #EBB385",
"(	c #000000",
"_	c #8A6957",
":	c #1D1D1D",
"<	c #533F3C",
"[	c #614C4B",
"}	c #D8D8D8",
"|	c #D3D3D3",
"1	c #425A7E",
"2	c #28446C",
"3	c #2D486F",
"4	c #FEDAB1",
"5	c #900004",
"6	c #D48C52",
"7	c #5C0003",
"8	c #FF252C",
"9	c #FF595C",
"0	c #DE0007",
"a	c #FE2B32",
"b	c #FE5E60",
"c	c #015478",
"d	c #4E0002",
"e	c #0070A4",
"f	c #008BCC",
"g	c #003D58",
"h	c #023332",
"i	c #361100",
"j	c #782601",
"k	c #A43707",
"l	c #5A1C01",
"m	c #240B00",
"n	c #411907",
"o	c #C8AE85",
"p	c #CBA4A2",
"q	c #AD8A6B",
"r	c #1B0000",
"s	c #AE0005",
"t	c #4F2F20",
"                                           . .+.+.+.+                                           ",
"           . .+.+.+.+                     +@.@@@@..+++#                    . .+.+.$.+           ",
"          +@.@@@@..+++.                  +.%@%&&%@.+.$@+                  +@.@@@@#.+++#         ",
"         +.%@%&&%@.+.+@+                +.@@%&%%%%..*@..+                +.%@%&&=@.+.+@$        ",
"        +.@@%&%%%%..@@.#+              .&@%@&&%%%%@#@%@@.               +.@@%&%=%%..@@..$       ",
"       .&@%@&&%%%%@.@%*@.             ..@&%&%&@&%&=@@&%&@.             .&@%@&&=%%%@.@%@@.       ",
"      #.@&%&%&@&%&%@@&%&@.           +..&%@&@&@&&&%@@%@&&.+           ..@&%&%&@&%&%@@&%&@.      ",
"     +.#&%@&@&@&&&%@*%@&&.+           +@&.@%@&@%=%@.%@.%&@+          +..&%@&*&@&&&%@@%@&&.+     ",
"      +@&.@%@&@%%%@.%@.%&@+           .&%.@+.%@%%@.@&+.@&@+           +@&.@%@&@%%%@.%@.%&@+     ",
"      .&%.@+.%@%%@.@&+.@&@+           .&@+.-+@%@%.@&+-+@%.+           .&%.@+.%@%%@.@&+.@&@+     ",
"      .&@+.-+@%@%.@&+-+@%.+           .%@++;-+@%@.@+-;+.@.+           .&@+.-+@%@%.@&+-+@%.+     ",
"      .%@>+;-+@%@.@+-;+.@.+            .%+,'''+..@+''',.@+            .%@++;-+@%@.@+-;+.@.+     ",
"       .)!,~~~$.#*$''',.@+            {$*$]^{{/,+.,((^/+@+(            .=$,'''+..@+''',.@+      ",
"      (+_!]^:>]-<[-((^/+@+(           >]_!]}>:]/,+/((|/+./(           :!_!]^((/,+.,((^/+@+(     ",
"      (/_>]|>:]]-.]:(|/+./(            {[#]|11]]///22|/+.(            :]_.]}((//,+/((|/+./(     ",
"       (#+/|32/////32|/+.(              #+/|33;4;;;22|/+.              (#$/|22/////22|/+.(      ",
"        .+/|22;;;;;22|/+.              5+(6/;;;;;;;;;/6(+5              .+/|22;;;;;22|/+.       ",
"       7+(6/;;;;;;;;;/6(+7            5890'6/;>;;;>;/6'0985            7+(6/;;;;;;;;;/6(+7      ",
"      5080'6/;>;;;>;/6'0987          5099805'6:/>/:6'5089905          7890'6/;>;;;>;/6'0805     ",
"     5088806'6:/>/:6''598807        5880580095'':''5900850885        708895''6:/>/:6''088805    ",
"    7885088595'':''5a50599807      507780500899767998005087705      70899505a5'':''59588058a7   ",
"    7508550589976799855855507      56//'87(85950705958(78'//65      705558558b976799850558057   ",
"    '6650(5859507059585('/67       '6/66'((89509990598(('66/6~       76/'(5859507059585(0566'   ",
"    ~66'' 58950999059('6666'        (6;;6'(59999999b95('6;;6(        '6666'(950b9905985 ~'66'   ",
"    '//6( 50999999990';;/6(         (6;;6'c75888888857c'6;;6(         (6/;;'0999b999905 (6//'   ",
"    '6/'( d7708880077';;/~(          (//6(ce777555777ec(6//(          ('/;;'77008a8077d ('/6'   ",
"    (66'  ceeffffeeec(6/6(            ((( ceefffffffeec (((            (6/6(ceeeffffeec  '66(   ",
"     (((  cceffecccccc(((                 gcefecgcefecg                 (((cccccceffecc  (((    ",
"          (ceefeehcccc                    hceeechceeech                    cccc(ijkkli(         ",
"           (liiij(ii(                     ijkkjimijkkjn                     (ii(jinil(          ",
"           (ijkji(((                      mmiimm mmiimm                      (((ijkji(          ",
"             (ii(                          (jji( (ijj(                          (ii(            ",
"                                          +..+..+++$                                            ",
"          +..+..++++                  .  .@@@@.@@.$.++                    +..+#.++++            ",
"      #  .@@@@.@@.+.+$                .+@@&&%@@@%$..+.+               .  .@@@*.@@.+.++          ",
"      .$@@&&%@@@%+..$.+               .@&&%%%@%@*@@@++++              .+@@&&=@@@%+..+.+         ",
"      .@&&%%%@%@@@@@++++             +@&&%%%%%&@%%@.+..+              .@&&%%%@%@@@@@++++        ",
"     +@&&%%%%%&@%%@.+..+             +@&&&&%@&%.@&%@@...+            +@&&%%%%%&@%%@.+..+        ",
"     +@&&&&%@&%.@&%@@...+            @%&%&@%.&@.@&&@.@@+++           +@&&&&%@&%.@&%@@...+       ",
"     @%&%o@%.&@.@&&@.@@+++           *%&%@%@+%.+.%&%...@+            @%&%&@%.&@.@&&@.@@+++      ",
"     @%&)_=*$=#+#=&%...@+            !*=#=#+-*$-.@&%....+            *=&=*=@+%.+.%&%...@+       ",
"     +@%[)[!p_!p[_o%....+             <[_[!p4!p;..%@+@++.+           !_q[q[$-@+-.@&%....+       ",
"      +._<!p4#p4[<)_$@++.+             <_#p***6]$.%.+..+++            !<_<>p;+-;..%@+@++.+      ",
"       .@+-'~'6/$#%#+..+++             +#+/((^6/+.@+.++.+              .*$-~''6/+.%.+..+++      ",
"       +.+/((^6/+.@+.++.+              (+,/((|6/+@.++..++              +.+/((^6/+.@+.++.+       ",
"       (+,/((|6/+@.++..++              (,//22|/;-.+/{+.+               (+,/((|6/+@.++..++       ",
"       (,//22|/;-.+/{+.+               (;;;22|;;;.+{+.++               (,//22|/;-.+/{+.+        ",
"       (;;;22|;;;.+{+.++               (;;;;;;;;;+{++++                (;;;32|;;;.+{+.++        ",
"       (;;;;;;;;;+{+$++                (6;;;;;;;/+{+++                 (;;;;4;;;;+{++++         ",
"       (6;;;;;;;/+{++$                  >6>;:;;/'mmmmr                 (6;;;;4;;/+{+++          ",
"        >6>;:;;/'rrrr                   :(:'''''70a87                   >6>;:;4/'rrrr           ",
"        :(:'''''50807(                    7('550589b87                  :(:''''777080(          ",
"          7(555709980(                   70709970550507                   7('558058990(         ",
"         (078875800887(                  77079775099857                  70878997098857         ",
"         (578707999507(                  70907((''77087                  '07079500099a5(        ",
"         7056//7750855(                  7899(6///6;;0(                 '67080785785570(        ",
"         70(/;;;/;7075(                  7098(/;;;;;/6(                 (6708888((6///7(        ",
"         75(6;;;;;/(57(                   700(6/;;//6(                   ((700076/4;/6(         ",
"          (d('6;;/(77(d                    gee(('''((                     (d555(/4;/6'(         ",
"           d[(('((ceecc                    gceeccccch                      ceff(6/6'((          ",
"            ccc(ccefecm                     gefeccch(                      cccechhhcch          ",
"           mnn((jkkkllm                      ljkjllm                      mlkkjm(mmm((          ",
"           llm(hmmmmmm                       mmmmmmm                      (mmmmm((((((          ",
"                (ljll(                       (ljjl(                       (ljjl(                ",
"                                            ++++..+..+                                          ",
"            ++++..+..+                    ++.+.@@.@@@@@  .                  ++++..+..+          ",
"          ++.+.@@.@@@@@  .               +.+..+%@@%%&&%@@.                ++.+.@@.@@@@@  .      ",
"         >.+..+%@@%%&&%@@.              ++++@@@@%%@%%%&&%@               +.+..+%@@%%&&%@@.      ",
"        #!$$***@==*%%%&&%@              $##+#*=%@&%%%%%&&@+             $$$+@@@@%%@%%%&&%@      ",
"        ![[![_qq_oq%%%%&&@+            ![[[__qo@@%&@%&&&&%.             <[[$.@%%@&%%%%%&&@+     ",
"       +<<[*_)o__)o_=&&&&%.           !><__<_oo_#@&.%@&%&%.            .[<<_*%&@@%&@%&&&&%.     ",
"      ++$@*.*&&@#@&#%@&%&%.            +*.#.=&%#+.%+@%@%&@+           $+$@@#@&&@.@&.%@&%&%.     ",
"       +@...%&%.+.%+@%@%&@+            +....%&@.-+@-+.%.%.+            +@...%&%.+.%+@%@%&@+     ",
"       +....%&@.-+@-+.%.%.+           +.++@+@%..;-+;-+.@.+             +....%&@.-+@-+.%.%.+     ",
"      +.++@+@%..;-+;-+.@.+            +++..+.%.+/6'''-+@.             +.++@+@%..;-+;-+.@.+      ",
"      +++..+.%.+/6'''-+@.              +.++.+@.+/6^((/+.+             +++..+.%.+/6'''-+@.       ",
"       $.++.+@.+/6^((/+.+              ++..++.@+/6|((/,+(              +.++.$@.+/6^((/+.+       ",
"       ++..++.@+/6|((/,+(               +.+{/+.-;/|22//,(              ++..++#@+/6|((/,+(       ",
"        +.+{/+.-;/|22//,(               ++.+{+.;;;|22;;;(               +.+{/+#-;/|22//,(       ",
"        ++.+{+.;;;|22;;4(                ++++{+;;;;4;;;;(               ++.+{+.4;;|22;;;(       ",
"         ++++{+;;;;;;;;;(                 +++{+/;;;;4;;6(                ++++{+;4;;;;;;4(       ",
"          +++{+/;;;;;;;6(                  r77r'/;;:;>6>                  +++{+/;4;;;;46(       ",
"           rrrr'/;;:;>6>                   78807''''':(:                   rrrr'/;4:;>6>        ",
"          (70805''''':(:                  789985055'(7                    (080777'''':(:        ",
"          (089907555(7                   70505507990707                  (099850855'(7          ",
"         (788008578870(                  75899057797077                  758890799a7807         ",
"         (705999707875(                  78077''((70907                 (58990005b7070~         ",
"         (5580577//6507                  (0;;6///6(9b87                 (0755875a708076~        ",
"         (5707;/;;;/(07                  (6/;;;;;/(a907                 (7///6((8888076(        ",
"         (75(/;;;;;6(57                   (6//;;/6(007                   (6/;;/670007((         ",
"         c(77(/;;6'(d(                     (('''((eeg                    ('6/4;/(555d(          ",
"         cceec(('(([c                      hccccceecg                     ((~6/6(ss5d           ",
"         hcefecc(ccc                        hcccefeg                      hcc(((ceccc           ",
"         mllkkkj((eem                       mlljkjl                       ((mmm(mjkklm          ",
"          mmmmmmh(mll                       mmmmmmm                       ((((((mmmmm(          ",
"          (lljl(                             (ljjl(                             (ljjl(          ",
"                                            $#$.+.+.'.                                          ",
"            ![![<[!#'.                    [![[[@+%.@.@+                     +.+.+.+.'.          ",
"          [>[<[_!)<_#@+                  #_<_)<)#%@.@%.+                  <##..@+%.@.@+         ",
"         +*.*%#%#%@#@%.+                $.=@#%@&@&%+&%..+                $@#@%.%.%@.@%.+        ",
"        +.%@.%@&@&%+&%..+               +.%&@@%%%%@.%%@%@.              +.%@.%@&@&%+&%..+       ",
"        +.%&@@%%%%@.%%@%@.             .@%@%%.%@%%@.%@%@@..             +.%&@@%%%%@.%%@%@.      ",
"       .@%@%%.%@%%@.%@%@@..           +.%&%.%@@@@%.@@%@@@%.+           .@%@%%.%@%%@.%@%@@..     ",
"      +.%&%.%@@@@%.@@%@@@%.+          ++%&&%.@.@@@.@@..@%.+           +.%&%.%@@@@%.@@%@@@%.+    ",
"      +$%&&%.@.@@@.@*..@%.+           ++.@%@@.@.*..@..@%.++           ++%&&%#@.@@@.@@..@%.+     ",
"      $+.@%@@.@.@..@.#@%.++           +.@...@...@#+.+@@@@.+           ++.@%@@#@.@..@..@%.+$     ",
"      +.@...@...@.+.+@*@@.+           +.%%@..@+...$+.@@...+           +.@...@.#.@.+.+@@@@#+     ",
"      +.%%@..@+...++.@@#..+            +@@%@+.++..+#@@.+++            +.%%@..@+#..++.@@.#.+     ",
"       +@@%@+.++..+.@@.+$+             +.@.@@+.+..+.*.++.+             +@@%@+.++#.+.@@.$++      ",
"       +.@.@@+.+..+.@.++.$             (+@..@.+.+..@.$+.+(             +.@.@@+.+.#+.@.$+.+      ",
"       (+@..@.+.+..@.++.+(              (.@..@..+...++$.(              (+@..@.+.+.#@.$+.+(      ",
"        (.@..@..+...+++.(               (+.+...+.+..+.++(               (.@..@..+...+++.(       ",
"        (+.+...+.+..+.++(                7+++.++.+.+.++7                (+.+...+.+..+.++(       ",
"        7(+++.++.+.+.++(               75888++++.++++8a857               (+++.++.+#+.$+(7       ",
"       70880++++.++++8887             589989988++++89b89985             7888++++.$+++0a807      ",
"      708809980++++88899a7            09990999999999b909990            78998888+$++8990a807     ",
"      78005999999999809b97           59008589899999a98580095           79990899b99999950087     ",
"      7088798999989980b9807          7899058899999b988509987          70899089b899998978807     ",
"      ~77758999998098500887          '6//7(099999b9990(7//6'          7880058b089999985777~     ",
"      (~'(5089999980059997'          (6/6(d70889b98807d(6/6(          '7999500899999805(''(     ",
"       (((75008800777(7776'           ((('ddd7555557ddd'(((           '6777(77700880057(((      ",
"          gcceeccccccg'66(               (ceeffeceffeec(               (66'gcccccceeccg         ",
"          gcceffcceecgg((                 ceeffeceffeec                 ((ggceeccffeccg         ",
"          ggcceecgggghh                   cceeeccceeecc                   hhggggceeccgg         ",
"           hgcccehcch                     hccccchccccch                     hcchecccgh          ",
"           :~ttt<::(                      t~~kkl(lkkjji                      (((iiiij(          ",
"            >~kkkt                         ttttt iiiii                         ikkkj(           ",
"            (knin(                         (lll( (lll(                         (iiik(           "};
