/* XPM */
static char * male_xpm[] = {
"96 128 37 1",
" 	c #494949",
".	c #222020",
"+	c #453C3B",
"@	c #655C5A",
"#	c #8E8582",
"$	c #7C5E4F",
"%	c #464646",
"&	c #8A7461",
"*	c #D9D9D9",
"=	c #232323",
"-	c #69423A",
";	c #3D2D26",
">	c #F2F2F2",
",	c #8C8C8C",
"'	c #FFFFFF",
")	c #2D401C",
"!	c #462F26",
"~	c #417517",
"{	c #323234",
"]	c #777575",
"^	c #444444",
"/	c #B9B6B5",
"(	c #545456",
"_	c #DBD8D7",
":	c #453FB4",
"<	c #6D6D6E",
"[	c #352A80",
"}	c #516CED",
"|	c #75A2FF",
"1	c #265358",
"2	c #6A8779",
"3	c #809D90",
"4	c #92B0A3",
"5	c #4B6757",
"6	c #3E7F68",
"7	c #549E8E",
"8	c #416E5F",
"                                                                                                ",
"                                               .                                                ",
"          ...  .                          .... ..  ...                          .   ...         ",
"           +@..+.  ...                     .+@..+..@++.                    ... .+. .@+          ",
"           .+@.++..+@+.                  ....+@+@+@+..                    .+@@..@+.@+.          ",
"       ......@@+@+@@..                 ..++@@#@@#@@#@+...                ....@@+@+@+...         ",
"      .+@@+@@#@@#@@#@+..              .++@@@#@@@##@@#@@++.              .++@@#@@#@@#@++...      ",
"       .+@@@#@@@##@@#@@+.              ..+@##@@@@@@@##@@@+.            .+@@@#@@@##@@#@@@@@.     ",
"        .+@##@@@@@@@##@@@.             .+@@@#@@@@@@@#@@+..            .+++@##@@@@@@@##@@@.      ",
"       .+@@@#@@@@@@@#@@+.+.           .+@@@@@#@@##@#@@@@+..            .+@@@#@@@@@@@#@@+..      ",
"      .+@@@@@#@@##@#@@@@+.            .@@++@@@+##@+@@@+@@++.          .+@@@@@#@@##@#@@@@++..    ",
"     .@@@++@@@+##@+@@@+@@+.          .@@++@@@+.@@+.+@@@+.+++.         .@@++@@@+##@+@@@+@@@++.   ",
"    .@@@++@@@+.@@+.+@@@+.++.        .....+@@+..@+.$.+@@++...         .@@++@@@+.@@+.+@@@+.++.    ",
"     ....+@@+.@@+.$.+@@++.+.          ..+@@+.$.+.$$$.+@@++.          .@+.+@@+..@@.$.+@@++..     ",
"       .+@@+..+..$$$.+@@++..          .++@+.%%%.&&%%%.+@.+.          .+.+@@+.$$.+.$$.+@@++.     ",
"      .++@+.%%.&&&%%%.+@.+.           .+.+.$*=*&&&*=*$.+.+.           .++@+.%%%&.&%%%.+@.++.    ",
"     .++.+.$*=*&&&*=*$.+.+.           ..-;-$>=,&&&,=>$-;-..           .+++.$*=*&&&*=*$.+..+.    ",
"      ..-;-$>=,&&&,=>$-;.+.           . ;;-$'))&&&))'$-;; .           .+.;-$>=,&&&,=>$-;-;.     ",
"        ;;-$'))&&&))'$-;;.               ;!$&~~&&&~~&$!;               .;;-$'))&&&))'$-;;       ",
"         ;!$&~~&&&~~&$!;                  ;-$&&&&&&&$-;                  ;!$&~~&&&~~&$!;        ",
"          ;-$&&&&&&&$-;                  {{;!-$$$$$-!;{{                  ;-$&&&&&&&$-;         ",
"         {{;!-$$$$$-!;{{                 ]^^;;;;;;;;;^^]                 {{;!-$$$$$-!;{{        ",
"        ]/^^;;;;;;;;;^(]{               ]_'^((^^^^^((^'_]               {](^;;;;;;;;;^^/]       ",
"       ;!__^((^^^^^((('_]{             ;!'_:^(<<<<<(^:_'!;             {]_'(((^^^^^((^__!;      ",
"       ;!-/:^(<<<<<(^/''-;             ;&&/[}((<<<((}[/&&;             ;-''/^(<<<<<(^:/-!;      ",
"       {;;][}((<<<((}]&&$;{            ;&$;[:}|:[:|}:[;$&;            {;$&&]}((<<<((}[];;{      ",
"      {{{{{[:}|:[:|}:1$--;{            {;;{12::333::21{;;{            {;--$1:}|:[:|}:[{{{{{     ",
"      {{{{{13::333::21;;;({            {{{{12432223421{{{{            {(;;;12::333::31{{{{{     ",
"      {{{{{13442552251{((({            {{{{15435553451{{{{            {((({15225524431{{{{{     ",
"       {  {1244111661{{(({              {   166111661   {              {(({{1661114421{  {      ",
"            6778  11   {{                   1771 1771                   {{   11  8776           ",
"            1778                             11   11                             8771           ",
"                                                                                                ",
"                                                .                                               ",
"           ... ..                          .....+. ...                          ..   .          ",
"            +@.+@.  ..                      .@+.@+.@@+.                     .....+..+@.         ",
"       .... .@@.@+..@@.                .......@+@.@@+.                     .+@+.@+.@@+.         ",
"        +@+...@+@.+@@++.                .+@@++@@@@@+.....                ....+@+@.@@+.          ",
"        .+@@++@@@@@+.....               ..+@@#@@@@@#@@@++.             ..+@@@@@@@@@+......      ",
"       ...+@@#@@@@@#@@@++.             .++@##@@@@@@@##@@@+.           ....+@@#@@@@@#@@@@@+.     ",
"     ..+@@@##@@@@@@@##@@@+.           .+@@@@##@@@@@##@@+..             .++@##@@@@@@@##@@+.      ",
"    .+@@@@@@##@@@@@##@@+..           .+@@+@@@#@###@#@@@@+.            .+@@@@##@@@@@##@@+..      ",
"     .++++@@@#@###@#@@@@+.          .+++.@@@+@@@@@@@@@+@@+.          .+@@+@@@#@###@#@@@@++.     ",
"      ...@@@+@@@@@@@@@+@@@.          ...+@@+.+@@@+@@@@+.@@+.        .+++.@@@+@@@@@@@@@+@@++.    ",
"       .+@@+.+@@@+@@@@++@@+.           .@@+.$.+@@@+.+@@..+++.        ...+@@+.+@@@+@@@@@.@@++.   ",
"       .@@+.$.@@@+.+@@@.+@@+.          .@+.$$$.+@@++.+@.+...           .+@+.$.+@@@+.+@@+....    ",
"      .+@+.$$.+@@++.+@@.....           .+.$$%%%.+@.;+.+.++.            .++.$$$.+@@++.+@@.+.     ",
"      .++.$$%%.+@+.;.+@.++.             .;$&*=*&.+.&;+..++.            .+.$$%%%.+@+.+...+++.    ",
"       . ;$&*=*.@..&;..+++.              ;$&,=>&&.!&;++..+.             .;$&*=*&.++.;+++.++.    ",
"         ;$&,=>&..!&;++.++.              ;-&))'&&&!$;++. .               ;$&,=>&&..&;+++..+.    ",
"         ;-&))'&&&!$;++..+.              ;!&~~&&&$-;+.+.                 ;-&))'&&&!$;+++. .     ",
"         ;!&~~&&&$-;+.+.  .               ;-&&&&$--++..                  ;!&~~&&&$-;++.+.       ",
"          ;-&&&&$--++..                    ;!-$$--!+.{                    ;-&&&&$--++. .        ",
"           ;!-$$--!+.{                      ;;;;;;;.^^{                    ;!-$$--!+.{{         ",
"            ;;;;;;;.^^{                    {^^^(((^(((({                    ;;;;;;;.<(^{        ",
"           {^^^((<<<(<^{                   {^(<<<(('/^<^{                  {^^^(((^<((<({       ",
"           {^(<<<<'/^<(^{                  {^^(((]''_]<({                  {^(<<<(('_]{<^{      ",
"           {^^((]''_]<(^{                   [:}||]_'_]<(^{                 {^^(((]_''_]<(^{     ",
"            [:};_''/]<(^^{                  [5:}};&&$;<(^{                  [:}||}]_'&-;<({     ",
"            15;$&&/]1<<(^{                   1343;&&-;((^{                  [5:}}:1]&&-;<(^{    ",
"           182;-$-;35(<(^{                   12433;;;{((^{                 13443215;--;{<(^{    ",
"           1888;;;5776<{{                     167681{{(^{                 1776225188;;{{<({     ",
"            111  17776{                       177681  {{                  1777811 111{{{({      ",
"                  1111                         1111                        1111         {       ",
"                                                                                                ",
"                                                .                                               ",
"           .   ..                          ... .+.....                          .. ...          ",
"          .@+..+.....                     .+@@.+@.+@.                      ..  .@+.@+           ",
"          .+@@.+@.+@+.                     .+@@.@+@.......                .@@..+@.@@. ....      ",
"           .+@@.@+@+....                .....+@@@@@++@@+.                .++@@+.@+@...+@+       ",
"       ......+@@@@@@@@@+..             .++@@@#@@@@@#@@+..               .....+@@@@@++@@+.       ",
"      .+@@@@@#@@@@@#@@+....           .+@@@##@@@@@@@##@++.             .++@@@#@@@@@#@@+...      ",
"       .+@@##@@@@@@@##@++.             ..+@@##@@@@@##@@@@+.           .+@@@##@@@@@@@##@@@+..    ",
"       ..+@@##@@@@@##@@@@+.            .+@@@@#@###@#@@@+@@+.           ..+@@##@@@@@##@@@@@@+.   ",
"      .++@@@@#@###@#@@@+@@+.          .+@@+@@@@@@@@@+@@@.+++.          .+@@@@#@###@#@@@++++.    ",
"     .++@@+@@@@@@@@@+@@@.+++.        .+@@.+@@@@+@@@+.+@@+...          .@@@+@@@@@@@@@+@@@...     ",
"    .++@@.@@@@@+@@@+.+@@+...        .+++..@@+.+@@@+.$.+@@.           .+@@++@@@@+@@@+.+@@+.      ",
"     ....+@@+.+@@@+.$.+@+.           ...+.@+.++@@+.$$$.+@.          .+@@+.@@@+.+@@@.$.+@@.      ",
"      .+.@@+.++@@+.$$$.++.            .++.+.+;.@+.%%%$$.+.           .....@@+.++@@+.$$.+@+.     ",
"     .+++...+.+@+.%%%$$.+.            .++..+;&.+.&*=*&$;.             .++.@+.;.+@+.%%$$.++.     ",
"     .++.+++;.++.&*=*&$;.             .+..++;&!.&&>=,&$;              .+++..;&..@.*=*&$; .      ",
"     .+..+++;&..&&>=,&$;               . .++;$!&&&'))&-;              .++.++;&!..&>=,&$;        ",
"      . .+++;$!&&&'))&-;                 .+.+;-$&&&~~&!;              .+..++;$!&&&'))&-;        ",
"        .+.++;-$&&&~~&!;                  ..++--$&&&&-;               .  .+.+;-$&&&~~&!;        ",
"         . .++--$&&&&-;                    {.+!--$$-!;                    ..++--$&&&&-;         ",
"          {{.+!--$$-!;                    {^^.;;;;;;;                      {.+!--$$-!;          ",
"         {^(<.;;;;;;;                    {((((^(((^^^{                    {^^.;;;;;;;           ",
"        {(<((<^(((^^^{                  {^<^/'((<<<(^{                   {^<(<<<((^^^{          ",
"       {^<{]_'((<<<(^{                  {(<]_''](((^^{                  {^(<^/'<<<<(^{          ",
"      {^(<]_''_](((^^{                 {^(<]_'_]||}:[                   {^(<]_'']((^^{          ",
"      {(<;-&'_]}||}:[                  {^(<;$&&;}}:5[                  {^^(<]/''_;}:[           ",
"     {^(<;-&&]1:}}:5[                  {^((;-&&;3431                   {^(<<1]/&&$;51           ",
"     {^(<{;--;51234431                 {^(({;;;33421                   {^(<(53;-$-;281          ",
"      {(<{{;;8815226771                 {^({{186761                     {{<6775;;;8881          ",
"       {({{{111 1187771                  {{  186771                       {67771  111           ",
"        {         1111                        1111                         1111                 ",
"                                                                                                ",
"                                                 .                                              ",
"          ...   .                          ...  .. ....                          .  ...         ",
"           +@. .+. ...                    .++@..+..@+.                     ...  .+..@+          ",
"           .+@.+@..@@+.                    ..+@+@+@+....                  .+@+..++.@+.          ",
"          ...+@+@+@@....                ...+@#@@#@@#@@++..                 ..@@+@+@@......      ",
"       ...++@#@@#@@#@@++.              .++@@#@@##@@@#@@@++.              ..+@#@@#@@#@@+@@+.     ",
"      .@@@@@#@@##@@@#@@@+.            .+@@@##@@@@@@@##@+..              .+@@#@@##@@@#@@@+.      ",
"       .@@@##@@@@@@@##@+++.            ..+@@#@@@@@@@#@@@+.             .@@@##@@@@@@@##@+.       ",
"       ..+@@#@@@@@@@#@@@+.            ..+@@@@#@###@#@@@@@+.           .+.+@@#@@@@@@@#@@@+.      ",
"     ..++@@@@#@###@#@@@@@+.          .++@+@@@@@@#@@@@@@+@@.            .+@@@@#@###@#@@@@@+.     ",
"    .++@@@@@@@@@#@@@@@++@@.         .++.+@@@@@@@@@@@@@@@+@@.          .+@@@@@@@@#@@@@@@@@@@.    ",
"     .++.@+@@@@@@@@@@@@++@@.         ...@@+@@+@@@@@@@+@@.....        .++.@@@@@@@@@@@@@@@+@@@.   ",
"      ..++.@@+@@@@@@@+@@.+@.          .+@+.@@+@@+@+@@+.@@..          .+.@@+@@@@@@@@@@+@@@...    ",
"      .++.+@+@@@+@+@@+.@+.+.          .++..@++@@+++@@+.+@+.          ..+@+.@@+@@+@+@@++@@+.     ",
"     .++..+@.@@++++@@+.+++.           .+.+.+.+@.++.+@+..++.           .++..+@+@@++++@@.+@@.     ",
"     .+...+..@+.++.@+...++.           ...++.+.+.+++.+.++...           .+..+.+.@+.++.+@+..++.    ",
"      .;.+.+.+.+++.+.++..+.           . ;.++++.+++++.++.; .           .+..++.+.+.+++.++....     ",
"        ;.+++.+++++.+++.;.               .+++++++++++++.               .;.+++++.+++++.+.;       ",
"         .++++++++++++.;                  .+.+++.+++.+.                  ;.+++++++++++.;        ",
"          .+.+++.+++.+.                  {^.!.+.-.+.!.^{                  .+.+++.+++.+.         ",
"         {^.!.+.-.+.!.^{                {^{^^(.(((.(^^{^{                {^.!.+.-.+.!.^{        ",
"         {{^^(.(((.(^^{{                {^{{((<<<<<(({{^{                {{^^(.(((.(^^{{        ",
"        {^{^(((((((((^^({              {^{^^(((((((((^^{^{              {(^^(((((((((^{^{       ",
"        {^{^((<<<<<(((^(<{             {^{^(((<<<<<(((^{^{             {<(^(((<<<<<((^{^{       ",
"        {^{^((<<<<<<((((<({            {^^^((<<<<<<<((^^^{            {(<((((<<<<<<((^{^{       ",
"        {^^((<<<(<<<(^((<<^           {^^^^((<<<<<<<((^^^^{           ^<<((^(<<<(<<<((^^{       ",
"        {^^((<<<(<<<<^((<<({          {^^^((<<<<<<<<<((^^^{          {(<<((^<<<<(<<<((^^{       ",
"        {^^((((<((<<<(^((<({           {{^((<<(((((<<((^{{           {(<((^(<<<((<((((^^{       ",
"         {^(^^^^(((<<(^^^{{              {{{{{{{{{{{{{{{              {{^^^(<<(((^^^^(^{        ",
"          {^1778^{{{{{{{{                   1771 1771                   {{{{{{{{^8771^{         ",
"            1778                             11   11                             8771           "};
